<svg xmlns="http://www.w3.org/2000/svg"><symbol id="facebook" viewBox="0 0 250 250"><path d="M250 223.2a26.6 26.6 0 0 1-26.8 26.8h-47.4v-98.8h33.5l5-37.9h-38.5v-24c0-6 1.1-10.4 3.3-13.4s8-5 15.1-5h20.1V37.4a212.3 212.3 0 0 0-29-1.7c-14.9 0-26.7 4.4-35.5 13.1s-13.1 21-13.1 36.6v27.9h-34v37.9h34V250H26.8a25.8 25.8 0 0 1-19-7.8 25.8 25.8 0 0 1-7.8-19V26.8a25.8 25.8 0 0 1 7.8-19 25.8 25.8 0 0 1 19-7.8h196.4a25.8 25.8 0 0 1 19 7.8 25.8 25.8 0 0 1 7.8 19z"/></symbol><symbol id="linkedin" viewBox="0 0 250 250"><path d="M232.1 0a17.2 17.2 0 0 1 12.6 5.3 17.2 17.2 0 0 1 5.3 12.6v214.2a18.1 18.1 0 0 1-17.9 17.9H17.9a17.2 17.2 0 0 1-12.6-5.3A17.2 17.2 0 0 1 0 232.1V17.9A17.2 17.2 0 0 1 5.3 5.3 17.2 17.2 0 0 1 17.9 0zM56.9 78.7a21.3 21.3 0 0 0 15.4-6.4 21 21 0 0 0 0-30.2 21.3 21.3 0 0 0-15.4-6.4 20.1 20.1 0 0 0-15 6.4 21.5 21.5 0 0 0 0 30.2 20.1 20.1 0 0 0 15 6.4zm18.4 135.6h.6V94.9H38.5v119.4zm139 0V149c0-18.6-2.6-32.2-7.8-40.7q-10.6-16.2-36.3-16.2a42.9 42.9 0 0 0-22.9 6.1A31.4 31.4 0 0 0 135 111h-.5V94.9H98.8v119.4h36.8v-59.2c0-9.3 1.3-16.3 3.9-21.2s9.9-9.5 18.4-9.5 14.2 3.6 16.8 10.6c1.8 4.5 2.8 11.6 2.8 21.2v58.1z"/></symbol><symbol id="insta" viewBox="0 0 250 250"><path d="M250.4 73.1c.3 10.4.5 27.7.5 51.9s-.3 41.6-.8 52.2a106.8 106.8 0 0 1-4.8 27.6 64.8 64.8 0 0 1-39.6 39.6 106.8 106.8 0 0 1-27.6 4.8c-10.6.5-28 .8-52.2.8s-41.6-.3-52.2-.8a94.6 94.6 0 0 1-27.6-5.3 59.8 59.8 0 0 1-24.3-14.8 65.6 65.6 0 0 1-15.3-24.3 102.9 102.9 0 0 1-4.7-27.6Q.9 161.3.9 125t.9-52.2a102.9 102.9 0 0 1 4.7-27.6 65.6 65.6 0 0 1 15.3-24.3A64.4 64.4 0 0 1 46.1 5.6 106.8 106.8 0 0 1 73.7.8c10.6-.5 28-.8 52.2-.8s41.6.3 52.2.8a106.8 106.8 0 0 1 27.6 4.8 64.8 64.8 0 0 1 39.6 39.6 115.9 115.9 0 0 1 5.1 27.9zm-26.8 125.6c2.2-6.4 3.7-16.4 4.4-30.2.4-8.2.6-19.7.6-34.6v-17.8c0-15.3-.2-26.8-.6-34.6-.7-14.2-2.2-24.2-4.4-30.2a40.6 40.6 0 0 0-24-24c-6-2.2-16-3.7-30.2-4.4-8.1-.4-19.7-.6-34.6-.6H117c-14.9 0-26.4.2-34.6.6-13.8.7-23.8 2.2-30.1 4.4a40.1 40.1 0 0 0-24 24c-2.3 6-3.8 16-4.5 30.2-.4 8.2-.6 19.7-.6 34.6v17.8c0 14.9.2 26.4.6 34.6.7 13.8 2.2 23.8 4.5 30.2q7.2 17.3 24 24c6.3 2.2 16.3 3.7 30.1 4.4 8.2.4 19.7.6 34.6.6h17.8c15.3 0 26.8-.2 34.6-.6 14.2-.7 24.2-2.2 30.2-4.4q17.3-7.3 24-24zM125.9 60.8a62.1 62.1 0 0 1 32.1 8.7 63.3 63.3 0 0 1 23.4 23.4 63.6 63.6 0 0 1 0 64.2 63.3 63.3 0 0 1-23.4 23.4 63.6 63.6 0 0 1-64.2 0 64.8 64.8 0 0 1-23.4-23.4 63.6 63.6 0 0 1 0-64.2 64.8 64.8 0 0 1 23.4-23.4 62.4 62.4 0 0 1 32.1-8.7zm0 106.1a42 42 0 0 0 41.9-41.9 42 42 0 0 0-41.9-41.9A41.8 41.8 0 0 0 84.1 125a41.8 41.8 0 0 0 41.8 41.9zM208 58a14.4 14.4 0 0 0-4.5-10.6 15 15 0 0 0-21.2 0 14.4 14.4 0 0 0-4.5 10.6 14.3 14.3 0 0 0 4.5 10.6 14.4 14.4 0 0 0 10.6 4.5 13.5 13.5 0 0 0 10.3-4.5A17.3 17.3 0 0 0 208 58z"/></symbol><symbol id="email" viewBox="0 0 250 250"><path d="M244.7 5.3A17.2 17.2 0 0 0 232.1 0H17.9A17.2 17.2 0 0 0 5.3 5.3 17.2 17.2 0 0 0 0 17.9v214.2a17.2 17.2 0 0 0 5.3 12.6 17.2 17.2 0 0 0 12.6 5.3h214.2a18.1 18.1 0 0 0 17.9-17.9V17.9a17.2 17.2 0 0 0-5.3-12.6zM53 52.5h144a22.7 22.7 0 0 1 11.8 3.2L130.2 129l-5.5 5.1-81.9-76.9-1.6-1.5A22.7 22.7 0 0 1 53 52.5zm167.3 121.7a23.3 23.3 0 0 1-23.3 23.3H53a23.3 23.3 0 0 1-23.3-23.3V75.8c0-1.1.1-2.2.2-3.3L105 143l12.6 11.8a10.3 10.3 0 0 0 14.2 0L220 72.5a16.9 16.9 0 0 1 .3 3.3z"/></symbol><symbol id="jianna-avatar" viewBox="0 0 250 250"><path fill="#1e1d1d" d="M116.7 169.6c-.3 1.2-.5 2.3-.8 3.3-.8 2.9-1.5 5.2-2.1 7.2s-.5 1.2-.7 1.7c-2.2 5.7-4.5 7.4-9.4 10.1l-6.8 3.9c-6.6 4-9.5 7.4-11.1 10.7s-1.9 6.7-3.1 10.3-3.7 5.8-6.8 9-4.2 4-6.1 5.7h-.4l-2.2-1.2a118.4 118.4 0 0 1-10.7-6.6 122.8 122.8 0 0 1-27.8-27l.3-.8c6-15.7 18.5-28 26.2-42.9a99.5 99.5 0 0 0 8.7-26 101.9 101.9 0 0 0 1.5-30.2c-.2-2.4-.4-4.8-.5-7.3l21 11.9a32.6 32.6 0 0 0 1 6 36.5 36.5 0 0 0 2 6.4 25.1 25.1 0 0 0 2.9 5.1c3.8 5.4 9 9.2 13.8 13.3a18 18 0 0 1 2 1.9c2.2 1.9 4.3 3.9 6.7 5.6l.8.5c.2.2 2.2 2.8 3.1 8.5s.9 11.7-1.5 20.9z"/><path fill="#d2c93f" d="M69.8 231.5zm136.3-88.8l-.9-.3-1.2-.2 1.3.3 1 .3zM125 4.9a120.1 120.1 0 0 0-96.3 191.8l.3-.8c6-15.7 18.5-28 26.2-42.9a99.5 99.5 0 0 0 8.7-26 101.9 101.9 0 0 0 1.5-30.2c-.2-2.4-.4-4.8-.5-7.3l21 11.9a32.6 32.6 0 0 0 1 6 36.5 36.5 0 0 0 2 6.4 25.1 25.1 0 0 0 2.9 5.1c3.8 5.4 9 9.2 13.8 13.3a18 18 0 0 1 2 1.9c2.2 1.9 4.3 3.9 6.7 5.6l.8.5c.2.2 2.2 2.8 3.1 8.5s.9 11.5-1.5 20.7c-.3 1.2-.5 2.3-.8 3.3-.8 2.9-1.5 5.2-2.1 7.2s-.5 1.2-.7 1.7c-2.2 5.7-4.5 7.4-9.4 10.1l-6.8 3.9c-6.6 4-9.5 7.4-11.1 10.7a28.9 28.9 0 0 0 12 10.7c7.5 3.6 16.1 4.3 24.4 3.8 11.6-.7 23.3-3.9 33-10.3a81.2 81.2 0 0 0 14.9 17.5c-.8 3.1-1.7 6.1-2.5 9.1 2.7-1 5.3-2.1 7.9-3.3l-1.4-2.7-3.2-6.1c-3-5.7-6.4-11.6-10.1-18.8l-2.3-4.5c-4.4-8-5.1-20.7-6.6-30-.1-.5-.1-1-.2-1.5a3.8 3.8 0 0 1-.1-1h-.1a1.9 1.9 0 0 0-.1-.8c-.1-1.3-.3-2.6-.4-3.8a201 201 0 0 1-.5-34.7 3.4 3.4 0 0 1 .1-1l.3-4.4a15 15 0 0 0 .2-2c.1-.4.1-.8.2-1.3.9-8.5 2.2-16.9 2.3-25.5v-3c0-1-.1-2-.2-3a30.1 30.1 0 0 0-.7-3.2 25.3 25.3 0 0 0-2.9-7.2 29 29 0 0 0-1.9-2.9 27.2 27.2 0 0 0-4-4.3h-.2a57.8 57.8 0 0 0-42.6-13.3h-.6c-2.9.3-9 1.1-13.3.8a17.7 17.7 0 0 0-4.3 8.1c-1.2 4.7-.7 9.7.2 14.4s1.6 7.5 2.2 11.3L64.9 81.8a15.5 15.5 0 0 1 .1-2.2c.8-12.4 4.4-24.9 12.1-34.6 1.8-2.3 4.7-4.6 7.3-4.2 6.8-6.9 14.2-13.4 23.4-16.2 12.7-3.7 26.7.7 37.1 8.9s17.6 19.7 23.5 31.5 10.9 24.1 17.9 35.3 17.2 22.7 25.1 34.6c2.7 4 5.7 8.4 8.2 12.9 7.7 3.5 14.8 7.9 20.1 13A120.3 120.3 0 0 0 125 4.9zm81.3 175c3.4 11.3.4 19.1-1.8 30.6-.3 1.8-.7 3.6-1.1 5.5a115.7 115.7 0 0 0 8.7-8.4 49.5 49.5 0 0 0-5.8-27.7z"/><path fill="#d1ac93" d="M160.8 206.4a46.3 46.3 0 0 1-5.6 4.3c-9.7 6.4-21.4 9.6-33 10.3-8.3.5-16.9-.2-24.4-3.8a28.9 28.9 0 0 1-12-10.7c1.6-3.3 4.5-6.7 11.1-10.7l6.8-3.9c4.9-2.7 7.2-4.4 9.4-10.1.2-.5.4-1.1.7-1.7s1.3-4.3 2.1-7.2c.3-1 .5-2.1.8-3.3 2.4-9.2 2.3-16 1.5-20.7s-2.9-8.3-3.1-8.5l-.8-.5c-2.4-1.7-4.5-3.7-6.7-5.6a18 18 0 0 0-2-1.9l-.2-.6 1-1a12 12 0 0 0 5.4 3.2c5.1 1.5 11.4.2 16.4-2.2s10.1-6.1 15.4-8.4a35 35 0 0 1 5.5-1.7 16.6 16.6 0 0 1 2.2-.3c-.1.5-.1.9-.2 1.3a15 15 0 0 1-.2 2l-.3 4.4a3.4 3.4 0 0 0-.1 1 201 201 0 0 0 .5 34.7c.1 1.2.3 2.5.4 3.8a1.9 1.9 0 0 1 .1.8h.1a3.8 3.8 0 0 0 .1 1c.1.5.1 1 .2 1.5 1.5 9.3 2.2 22 6.6 30z"/><path fill="#ba9983" d="M151.4 168.5c-2.1-2-5.1-5.2-9.3-10s-13-6.8-23.9-9.6c-.9-5.7-2.9-8.3-3.1-8.5l.3.2a20.5 20.5 0 0 0 8.5 2.2 25.5 25.5 0 0 0 9.9-1.2 20.2 20.2 0 0 0 3.4-1.4 24.7 24.7 0 0 0 7.7-5.5l5.7-5.7a3.4 3.4 0 0 0-.1 1 201 201 0 0 0 .5 34.7c.1 1.2.3 2.5.4 3.8z"/><path fill="#fff" d="M69.8 231.5zm97.8 5.8c.8-3 1.7-6 2.5-9.1a81.2 81.2 0 0 1-14.9-17.5c-9.7 6.4-21.4 9.6-33 10.3-8.3.5-16.9-.2-24.4-3.8a28.9 28.9 0 0 1-12-10.7c1.6-3.3 4.5-6.7 11.1-10.7l6.8-3.9c4.9-2.7 7.2-4.4 9.4-10.1.2-.5.4-1.1.7-1.7s1.3-4.3 2.1-7.2a38.7 38.7 0 0 0 5.9 1.3 49.1 49.1 0 0 0 17.1-.4h.7a49.3 49.3 0 0 0 12-4.3 3.8 3.8 0 0 0 .1 1c.1.5.1 1 .2 1.5 1.5 9.3 2.2 22 6.6 30l2.3 4.5c3.7 7.2 7.1 13.1 10.1 18.8l3.2 6.1 1.4 2.7c-2.6 1.1-5.2 2.2-7.9 3.2z"/><path fill="#1e1d1d" d="M69.8 231.5zm33.9-39.6a50.1 50.1 0 0 1-6.8 3.9zm10.6-52.1c-2.4-1.7-4.5-3.7-6.7-5.6a18 18 0 0 0-2-1.9c-4.8-4.1-10-7.9-13.8-13.3a25.1 25.1 0 0 1-2.9-5.1 36.5 36.5 0 0 1-2-6.4 32.6 32.6 0 0 1-1-6l-21-11.9c-.1-1.9-.1-3.9-.1-5.8s.1-1.3.1-1.9l20.4 11.5c-.6-3.8-1.5-7.5-2.2-11.3s-1.4-9.7-.2-14.4a17.7 17.7 0 0 1 4.3-8.1c4.3.3 10.4-.5 13.3-.8h.6a20.6 20.6 0 0 1 3.2 6.9c1.5 5.5 1.2 11.4 1 17.1 0 .7-.1 1.4-.1 2.1v.7c0 1.4-.1 2.9-.1 4.4v7.3c.3 12.4 1.8 24.7 6.5 36 .1.2.1.4.2.5.8 1.8 1.6 3.6 2.3 5.4.1.3.2.4.2.6z"/><path fill="#fff" d="M175.5 234c-2.6 1.2-5.2 2.3-7.9 3.3.8-3 1.7-6 2.5-9.1.3-1 .5-2 .8-3l3.2 6.1zm36.6-26.4a115.7 115.7 0 0 1-8.7 8.4c.4-1.9.8-3.7 1.1-5.5 2.2-11.5 5.2-19.3 1.8-30.6a49.5 49.5 0 0 1 5.8 27.7z"/><path fill="#191414" d="M114.3 139.8c-2.4-1.7-4.5-3.7-6.7-5.6a18 18 0 0 0-2-1.9c-4.8-4.1-10-7.9-13.8-13.3a65.6 65.6 0 0 0 13.6 12.7 83.5 83.5 0 0 1 8.7 7.6l1 1z"/><path fill="#f49321" d="M85.9 101.5l-21-11.9-6.9-4 1.1-1.9 1.1-2 .3-.5.8-1.4 3.6 2 20.4 11.6c.1.5.1 1 .2 1.5v.5a4.1 4.1 0 0 1 .1 1.1.6.6 0 0 1 .1.4c.1 1.5.1 3 .2 4.6z"/><path fill="#ce7720" d="M85.5 95.4h-.1L64.8 83.7l-3.5-2-.8-.5.8-1.4 3.6 2 20.4 11.6c.1.5.1 1 .2 1.5z"/><path fill="#f9f5e1" d="M61.3 79.8l1.1 1.8-2.2.1 1.1 1.9-2.2.1 1.1 1.8-2.2.1-9.3-9 12.6 3.2z"/><path fill="#1e1d1d" d="M53.4 81.1l1.6-2.9-6.3-1.6 4.7 4.5z"/><path fill="#ffdbc0" d="M153.6 95.8c-.1 8.6-1.4 17-2.3 25.5-.1.5-.1.9-.2 1.3a15 15 0 0 1-.2 2 47.7 47.7 0 0 1-13.7 15.6l-.6.5a19.2 19.2 0 0 1-6.4 3.2c-4.1 1.1-8.6.1-12.4-1.9l-2.4-1.4-.3-.2-.8-.5c-2.4-1.7-4.5-3.7-6.7-5.6a18 18 0 0 0-2-1.9c-4.8-4.1-10-7.9-13.8-13.3a25.1 25.1 0 0 1-2.9-5.1 36.5 36.5 0 0 1-2-6.4 32.6 32.6 0 0 1-1-6 51.3 51.3 0 0 1-.5-6.1c-.1-1.2-.1-1.9-.1-1.9-.6-3.8-1.5-7.5-2.2-11.3s-1.4-9.7-.2-14.4a17.7 17.7 0 0 1 4.3-8.1c4.3.3 10.4-.5 13.3-.8h.6a57.8 57.8 0 0 1 42.6 13h.2a27.2 27.2 0 0 1 4 4.3 29 29 0 0 1 1.9 2.9 25.3 25.3 0 0 1 2.9 7.2 30.1 30.1 0 0 1 .7 3.2c.1 1 .2 2 .2 3z"/><path fill="#f4f0ed" d="M93.7 92.8a5.9 5.9 0 0 1 3-2.1 11.6 11.6 0 0 1 3.7-.3 6.2 6.2 0 0 1 2.7.5 4.5 4.5 0 0 1 1.9 1.4 1.5 1.5 0 0 1-.1 1.3h-.5c-1.8.2-3.5.6-5.2.9a9 9 0 0 1-5.1-.7c-.2-.1-.5-.2-.6-.5a.6.6 0 0 1 .1-.7z"/><path fill="#1e1d1d" d="M97.9 90.6c-.2.1-.2.5-.2.7a4.8 4.8 0 0 0 .6 1.8 3.1 3.1 0 0 0 1.9 1.1 3.8 3.8 0 0 0 2.1-.4 2.7 2.7 0 0 0 .8-.7 3.3 3.3 0 0 0 .4-1.4 1.9 1.9 0 0 0-.2-.7l-.4-.2a6.6 6.6 0 0 0-2.5-.4 6.6 6.6 0 0 0-2.4.1z"/><path fill="#f4f0ed" d="M127.2 87.7a.8.8 0 0 1 .3-.8c2.7-3 6.8-4.6 10.6-3.5a1.2 1.2 0 0 1 .7.7c0 .2-.1.3-.1.4a10.1 10.1 0 0 1-6.4 3.2h-5.1z"/><path fill="#7f6565" d="M128.9 87.8a2.1 2.1 0 0 1-1.1.8h-.6c-.3 0-.6.3-.8.6l-.7.9c-.3-.3.1-.9.4-1.5l.6-1 .4-.6.4-.3c0 .3-.1.9.2 1.1a4.8 4.8 0 0 0 1.2 0z"/><path fill="#ad8a79" d="M115.1 113.1a2.5 2.5 0 0 1-1.7.4 1.5 1.5 0 0 1-.9-.6l.6-.6c.9.1 1.6.2 2 .8zm9.8-1.7c-1 .4-2.3-.1-3.3.3s-1.2.8-1.9.8l.6-.6a6.6 6.6 0 0 1 2.2-1.5 2.4 2.4 0 0 1 2.4 1z"/><path fill="#dbcec6" d="M95 91.9a2.1 2.1 0 0 0 1.7 2.7s-2.9 0-3.6-1.6a2.7 2.7 0 0 1 1.9-1.1z"/><path fill="#e5ad88" d="M99.3 90s-5.8-1.1-8-.3-2.4 1.5-2.4 2.8 3.4.9 4.3.9-1.7-2.5 6.1-3.4z"/><path fill="#e0bfa9" d="M103.9 95h-.6a11.7 11.7 0 0 0-2.5 1.5 7.2 7.2 0 0 1-4.9 2.5c-2.2 0 1.5.8 3.1.8a11.8 11.8 0 0 0 6.1-2.5c.8-.7.2-2.1-1.2-2.3z"/><path fill="#1e1d1d" d="M93.5 92.7a2.8 2.8 0 0 1-2.1-1.2 4.2 4.2 0 0 0 2.2.3l-1-1.6c.6.4 1 .7 1.5.6a7.8 7.8 0 0 1-.5-1.4 3.1 3.1 0 0 0 2.4 1h.3l.2-.3a4.8 4.8 0 0 0 0-1.7 2.3 2.3 0 0 0 .9 1.4 9.7 9.7 0 0 0 .1-1.7 5.9 5.9 0 0 0 .6 1.6 5.2 5.2 0 0 0 .7-1.5 1.7 1.7 0 0 0 .1 1.2.8.8 0 0 0 .9.5c.2 0 .2 0 .3-.2l1.3-1.4a10.9 10.9 0 0 1-.5 1.7 3.1 3.1 0 0 0 1.7-1.3 7.8 7.8 0 0 0-.5 1.4 1.5 1.5 0 0 0 1.3-.6 3.7 3.7 0 0 1-.5 1.1l-.3.3c-.1.1-.3 0-.5-.1a8.5 8.5 0 0 0-7.1 1.1c-.7.5-.9 1.2-1.8 1.5a3.3 3.3 0 0 1-2.8-.7 6.4 6.4 0 0 0 3.3-.5z"/><path fill="#514545" d="M101.7 90.8s-1.7-.4-2.1 0 .3.9 1.1.9 1-.9 1-.9z"/><path fill="#e5ad88" d="M129.2 84.6s2.4-4.9 7.2-5.5c2.5-.3 5.6-.1 5.7 1.5s-3.1 3.5-3.1 3.5-3.1-2-9.8.5z"/><path fill="#e0bfa9" d="M128.1 91.2s7.6-.2 8.5-1.9 3.8-.6 2.3 1a9 9 0 0 1-6.3 2.7 6 6 0 0 1-4.5-1.8z"/><path fill="#ad8a79" d="M130 108.5a3.9 3.9 0 0 1-.5 1.4 3.5 3.5 0 0 1-1.1 1 2 2 0 0 1-1.5.3 3.4 3.4 0 0 0 1.8-1.9 4.7 4.7 0 0 0-.1-3.3 4.9 4.9 0 0 0-2.4-2.5 4.3 4.3 0 0 1 2.5 1 4.5 4.5 0 0 1 1.1 1.7 3.8 3.8 0 0 1 .2 2.3z"/><path fill="#eac1a4" d="M103.9 84.6s4.3.5 5.2 3.3-.7 3.8-2.6 3.3-3.6-6.6-5.7-6.6z"/><path fill="#1e1d1d" d="M106.5 84.8a2.3 2.3 0 0 1-1.8.8l-2-.3a22.1 22.1 0 0 0-9.9-.6 5.2 5.2 0 0 0-2.2.7 6.6 6.6 0 0 0-1.9 1.8 19.5 19.5 0 0 0-1.7 2.3c-.1.2-.4.1-.3-.1a9.6 9.6 0 0 1 2.4-4.7 11.3 11.3 0 0 1 3.9-2.1c4.1-.9 8.3-.4 12.4.1a3.2 3.2 0 0 1 .9.3 1.3 1.3 0 0 1 .2 1.8z"/><path fill="#7f6565" d="M105 92.3s0 1.1-.5 1.4a6.4 6.4 0 0 1 2.3 1c.6.6-.4-1.4-1.8-2.4z"/><path fill="#dbcec6" d="M136.5 83.4a3.2 3.2 0 0 1 2.5.7 12.1 12.1 0 0 1-1.3 1.4c-.8.5 0-.3-.2-1.2s-1-.9-1-.9z"/><path fill="#1e1d1d" d="M135.6 85.2a3.1 3.1 0 0 1-1.6 2.1 3.2 3.2 0 0 1-2.7.1 1.5 1.5 0 0 1-.6-.5 2.6 2.6 0 0 1-.4-2.3l4.4-1.3a1.1 1.1 0 0 1 .8.8 3.7 3.7 0 0 1 .1 1.1z"/><path fill="#514545" d="M133.4 84a4 4 0 0 0-1.6.6c-.4.4 1 .9 1.6.3s.6-.3 0-.9z"/><path fill="#1e1d1d" d="M140.5 82.4a5.2 5.2 0 0 1-1.7 1.9 6.1 6.1 0 0 0-3.9-.9c-2.9.6-5.5 1.3-7.4 3.5l-.5.3a9 9 0 0 1 2.8-3.3 5.4 5.4 0 0 0 1.2-.9 6.1 6.1 0 0 0 .3-1.3c.3.3.2 1.1.3 1.4h.2c.1 0 .2 0 .2-.1s.3-1 .5-1.7a3.5 3.5 0 0 0 .6 1.4.2.2 0 0 0 .2.2c.1 0 .1-.1.2-.3a6.6 6.6 0 0 0 .3-1.5c.3.3.1 1.3.5 1.4h.3a5.8 5.8 0 0 0 1.9-1.9c-.1.7-.3 1.4-.4 2.1a7.5 7.5 0 0 0 1.5-1.6 10.9 10.9 0 0 1-.5 1.7 6 6 0 0 0 2.8-1.3 2.6 2.6 0 0 1-1.2 1.5 2.8 2.8 0 0 0 1.8-.6z"/><path fill="#e3b596" d="M138 115.4a1 1 0 0 1 .7-.7 1 1 0 0 1 1 .2c.6.6 1.9 2.3.3 3.9 0 0-.7.3-.6-.4a2.5 2.5 0 0 0-.1-1.7c-.4-.6-1.1-.8-1.3-1a.2.2 0 0 1 0-.3z"/><path fill="#eac1a4" d="M153.6 95.8c-.1 8.6-1.4 17-2.3 25.5-.1.5-.1.9-.2 1.3a15 15 0 0 1-.2 2l-.3 4.4a3.4 3.4 0 0 0-.1 1c-8.5 13.2-20.3 13.9-20.3 13.9a16.9 16.9 0 0 0 3.6-2.3c5.9-4.8 9-12.6 9.8-18.3.1-.4.1-.8.2-1.1a60 60 0 0 1 6.2-22.3c3.8-7.5.8-17.7-.2-20.6a25.3 25.3 0 0 1 2.9 7.2c.2 1 .5 2.1.7 3.2.1 1 .2 2 .2 3z"/><path fill="#fff" d="M113.1 112.3l-.6.6a2.6 2.6 0 0 1-1.9.9h-.8a2.6 2.6 0 0 1-2.1-2.8 2.7 2.7 0 0 1 1.3-2.2 3.5 3.5 0 0 1 2.9.3c.2.1.2.2.1.4h-.3a3 3 0 0 0-2.5-.3q-.7.3-.9 1.8a2.1 2.1 0 0 0 1.6 2.2c1.1.2 1.5 0 2.5-.9h.7z"/><path fill="#eac1a4" d="M123.4 78.2a12 12 0 0 1-3.3 3.1c-.9.5-.3 1.7 1.1 3.3s1.7 2.2 2.9 1.1a10 10 0 0 0 3-4.6 9.3 9.3 0 0 1 3.2-4.7z"/><path fill="#1e1d1d" d="M118.9 80.8a27.4 27.4 0 0 1 12.2-6.5 14.2 14.2 0 0 1 12.7 2.7c.5.4.7.6.4.9a12.8 12.8 0 0 0-3-1.7 14.4 14.4 0 0 0-9.4 0 24.6 24.6 0 0 0-8.3 5l-1.9 1.5c-.3.2-.6.5-.9.5a2 2 0 0 1-1.3-.9 1.5 1.5 0 0 1-.5-1.5z"/><path fill="#e5898d" d="M136.5 118.4c-.5 1.9-2 3.2-3.4 4.5l-2.2 2a22.1 22.1 0 0 1-4.9 3.6 12.3 12.3 0 0 1-4.2 1 14.4 14.4 0 0 1-4.6-.4 8.3 8.3 0 0 1-3.9-2.4 4.2 4.2 0 0 1-.8-1.2 6.5 6.5 0 0 1 0-2.4l-.2.3a1.5 1.5 0 0 1 1.5-.8c3.4-.4 6.9-.4 10.3-1l3.1-.7 5.2-1.2a8.6 8.6 0 0 0 2.3-.6 6.7 6.7 0 0 1 1.8-.7z"/><path fill="#cb787f" d="M136.5 118.4c-.3.8-1.2 1.2-1.9 1.6a65 65 0 0 1-6.1 2.5l-1.9.6a21.3 21.3 0 0 1-7.1.9h-1.2a5 5 0 0 1-2.2-.8 2.5 2.5 0 0 1-1.3-1.5l2.1-.9a3 3 0 0 1 1.5-.5c1-.1 2 .6 3 .5s1.3-.8 2-1a6.2 6.2 0 0 1 3.3 0 14 14 0 0 0 3.5.2 31.3 31.3 0 0 0 6.3-1.6z"/><path fill="#ba6a74" d="M118.3 123.9h-.1l-2.7-.2a26.7 26.7 0 0 1-4.4-.5c-.3-.2-.2-.7.1-.7a10.6 10.6 0 0 0 3.6-.9 2.5 2.5 0 0 0 1.3 1.5 5 5 0 0 0 2.2.8zm18.2-5.5c-.3.8-1.2 1.2-1.9 1.6a65 65 0 0 1-6.1 2.5c1.9-1.3 1.7-2.6 1.7-2.6a31.3 31.3 0 0 0 6.3-1.5z"/><path fill="#efedea" d="M174.1 231.3l-4-3.1a81.2 81.2 0 0 1-14.9-17.5c-2.7-4.1-5.2-8.2-7.3-12a90.6 90.6 0 0 1-6.2-14.4 5.6 5.6 0 0 0-.4-1.2 83.5 83.5 0 0 1-2.4-9.3h.7a59 59 0 0 0 11.9-4.4h.1a3.8 3.8 0 0 0 .1 1c.1.5.1 1 .2 1.5 1.5 9.3 2.2 22 6.6 30l2.3 4.5c3.7 7.2 7.1 13.1 10.1 18.8z"/><path fill="#b7afa9" d="M151.9 171.9a47.3 47.3 0 0 1-2.8 3.9 72.7 72.7 0 0 1-7.4 8.5c-4.9 5-9.6 7.9-13.9 8.9h-.5a8.6 8.6 0 0 1-2.2.2h-.4a10 10 0 0 1-5.7-2.1c-2.4-2-4.4-5.2-5.9-9.6.2-.5.4-1.1.7-1.7 1.2 4.1 3 8.1 5.9 10.4a8.5 8.5 0 0 0 7.4 1.7c4.9-.9 9.8-4.5 14.2-9.1a96.8 96.8 0 0 0 10.4-12.7c.1.6.1 1.1.2 1.6z"/><path fill="#b7afa9" d="M133.1 200a5.5 5.5 0 0 0-4.7-.7c0-1.1 0-2.1-.1-3.1a9.9 9.9 0 0 0-.3-2.4 1.4 1.4 0 0 0-.2-.6 1.1 1.1 0 0 0-1.1-.4 3.7 3.7 0 0 0-2 .7 3.9 3.9 0 0 0-1 .8 6.9 6.9 0 0 0-2.3 3.7 5.5 5.5 0 0 0 .9 4.7 6.6 6.6 0 0 0-1.4 2c-.8 1.7-1.4 4-.1 5.6s3.6.8 4.8-.5 2.1-4.2 2.4-6.4a15.3 15.3 0 0 0 .3-3 5.2 5.2 0 0 1 3.5.1 2.4 2.4 0 0 1 1.3 1.1 1.6 1.6 0 0 1-.6 1.8c-.3.3-.7.5-1 .3a1.2 1.2 0 0 1-.4-.8c-.1-.1 0-.2 0-.3a.6.6 0 0 0-.1-1.1c-1.2.1-1.2 1.5-.7 2.3s2 1.3 3 .4a2.9 2.9 0 0 0 1-2.3 2.8 2.8 0 0 0-1.2-1.9zm-7 6.7c-.5 1.5-1.4 3.1-3.1 3.3a1.5 1.5 0 0 1-1.3-.4 2.5 2.5 0 0 1-.4-.7 3.4 3.4 0 0 1-.1-1 7.2 7.2 0 0 1 1.8-4.4l1.4.9.6.2c.7.1 1-.9.3-1.1h-.3l-.9-.5-.3-.2a10 10 0 0 1 2.9-1.8l.5-.2a20.5 20.5 0 0 1-1.1 5.9zm1.2-7.1a9.6 9.6 0 0 0-4.2 2.3 3.1 3.1 0 0 1-.6-1.3c-.7-2.5.8-5 3-6.3a2.1 2.1 0 0 1 1.1-.4h.3v.3a1.7 1.7 0 0 1 .1.7 36.2 36.2 0 0 1 .3 4.7z"/><path fill="#191414" d="M206.3 142.8l-1-.3h-.1l.9.3h.2z"/><path fill="#fff" d="M170.1 228.2c-.8 3.1-1.7 6.1-2.5 9.1a120.3 120.3 0 0 1-97-5.2l-.9-.5h.1c1.9-1.7 4.1-3.7 6.1-5.7s5.9-6.5 6.8-9 1.4-6.9 3.1-10.3a28.9 28.9 0 0 0 12 10.7c7.5 3.6 16.1 4.3 24.4 3.8 11.6-.7 23.3-3.9 33-10.3a81.2 81.2 0 0 0 14.9 17.4z"/><path fill="none" d="M69.8 231.5zm136.3-88.8l-.9-.3-1.2-.2 1.3.3 1 .3zM125 4.9a120.1 120.1 0 0 0-96.3 191.8l.3-.8c6-15.7 18.5-28 26.2-42.9a99.5 99.5 0 0 0 8.7-26 101.9 101.9 0 0 0 1.5-30.2c-.2-2.4-.4-4.8-.5-7.3l21 11.9a32.6 32.6 0 0 0 1 6 36.5 36.5 0 0 0 2 6.4 25.1 25.1 0 0 0 2.9 5.1c3.8 5.4 9 9.2 13.8 13.3a18 18 0 0 1 2 1.9c2.2 1.9 4.3 3.9 6.7 5.6l.8.5c.2.2 2.2 2.8 3.1 8.5s.9 11.5-1.5 20.7c-.3 1.2-.5 2.3-.8 3.3-.8 2.9-1.5 5.2-2.1 7.2s-.5 1.2-.7 1.7c-2.2 5.7-4.5 7.4-9.4 10.1l-6.8 3.9c-6.6 4-9.5 7.4-11.1 10.7a28.9 28.9 0 0 0 12 10.7c7.5 3.6 16.1 4.3 24.4 3.8 11.6-.7 23.3-3.9 33-10.3a81.2 81.2 0 0 0 14.9 17.5c-.8 3.1-1.7 6.1-2.5 9.1 2.7-1 5.3-2.1 7.9-3.3l-1.4-2.7-3.2-6.1c-3-5.7-6.4-11.6-10.1-18.8l-2.3-4.5c-4.4-8-5.1-20.7-6.6-30-.1-.5-.1-1-.2-1.5a3.8 3.8 0 0 1-.1-1h-.1a1.9 1.9 0 0 0-.1-.8c-.1-1.3-.3-2.6-.4-3.8a201 201 0 0 1-.5-34.7 3.4 3.4 0 0 1 .1-1l.3-4.4a15 15 0 0 0 .2-2c.1-.4.1-.8.2-1.3.9-8.5 2.2-16.9 2.3-25.5v-3c0-1-.1-2-.2-3a30.1 30.1 0 0 0-.7-3.2 25.3 25.3 0 0 0-2.9-7.2 29 29 0 0 0-1.9-2.9 27.2 27.2 0 0 0-4-4.3h-.2a57.8 57.8 0 0 0-42.6-13.3h-.6c-2.9.3-9 1.1-13.3.8a17.7 17.7 0 0 0-4.3 8.1c-1.2 4.7-.7 9.7.2 14.4s1.6 7.5 2.2 11.3L64.9 81.8a15.5 15.5 0 0 1 .1-2.2c.8-12.4 4.4-24.9 12.1-34.6 1.8-2.3 4.7-4.6 7.3-4.2 6.8-6.9 14.2-13.4 23.4-16.2 12.7-3.7 26.7.7 37.1 8.9s17.6 19.7 23.5 31.5 10.9 24.1 17.9 35.3 17.2 22.7 25.1 34.6c2.7 4 5.7 8.4 8.2 12.9 7.7 3.5 14.8 7.9 20.1 13A120.3 120.3 0 0 0 125 4.9zm81.3 175c3.4 11.3.4 19.1-1.8 30.6-.3 1.8-.7 3.6-1.1 5.5a115.7 115.7 0 0 0 8.7-8.4 49.5 49.5 0 0 0-5.8-27.7z"/><path fill="#fff" d="M239.7 160.8a123 123 0 0 1-16.3 33.1c-1.8-10.9-6.6-21.4-12-31.1-1.4-2.6-2.9-5.2-4.4-7.8s-3.8-6.6-5.6-9.9l-1.8-3.4a31.5 31.5 0 0 1 4.3.5h.1l1.3.3 2.1 2.1 3.5 3.2 1.1 1.2c5.6 6.4 10.7 13.7 12.2 22a.8.8 0 0 0 1.5-.1c1.3-7.7-1.8-15.6-6.1-23.1 7.7 3.5 14.8 7.9 20.1 13z"/><path fill="#1e1d1d" d="M225.7 170.9a.8.8 0 0 1-1.5.1c-1.5-8.3-6.6-15.6-12.2-22l-1.1-1.2-3.5-3.2-2.1-2.1 1 .3h-.2l-.9-.3-1.2-.2h-.1a31.5 31.5 0 0 0-4.3-.5l1.8 3.4c1.8 3.3 3.7 6.6 5.6 9.9s3 5.2 4.4 7.8c5.4 9.7 10.2 20.2 12 31.1a122.7 122.7 0 0 1-11.3 13.7 49.5 49.5 0 0 0-5.8-27.7c3.4 11.3.4 19.1-1.8 30.6-.3 1.8-.7 3.6-1.1 5.5-2.2 1.9-4.5 3.7-6.8 5.4l-3 2.2-2.1 1.4-.8.5q-2.8 2-5.7 3.6c-3.1 1.8-6.3 3.4-9.5 4.9l-1.4-2.7-3.2-6.1c-3-5.7-6.4-11.6-10.1-18.8l-2.3-4.5c-4.4-8-5.1-20.7-6.6-30-.1-.5-.1-1-.2-1.5a3.8 3.8 0 0 1-.1-1h-.1a1.9 1.9 0 0 0-.1-.8c-.1-1.3-.3-2.6-.4-3.8a201 201 0 0 1-.5-34.7 3.4 3.4 0 0 1 .1-1l.3-4.4a15 15 0 0 0 .2-2c.1-.4.1-.8.2-1.3.9-8.5 2.2-16.9 2.3-25.5v-3c0-1-.1-2-.2-3a30.1 30.1 0 0 0-.7-3.2 25.3 25.3 0 0 0-2.9-7.2 29 29 0 0 0-1.9-2.9 27.2 27.2 0 0 0-4-4.3h-.2a57.8 57.8 0 0 0-42.6-13.3h-.6c-2.9.3-9 1.1-13.3.8a17.7 17.7 0 0 0-4.3 8.1c-1.2 4.7-.7 9.7.2 14.4s1.6 7.5 2.2 11.3L64.9 81.8a15.5 15.5 0 0 1 .1-2.2c.8-12.4 4.4-24.9 12.1-34.6 1.8-2.3 4.7-4.6 7.3-4.2 6.8-6.9 14.2-13.4 23.4-16.2 12.7-3.7 26.7.7 37.1 8.9s17.6 19.7 23.5 31.5 10.9 24.1 17.9 35.3 17.2 22.7 25.1 34.6c2.7 4 5.7 8.4 8.2 12.9 4.3 7.5 7.4 15.4 6.1 23.1z"/></symbol></svg>