<svg xmlns="http://www.w3.org/2000/svg"><symbol id="avatar" viewBox="0 0 250 250"><path fill="#1e1d1d" d="M119.7 169.6c-.3 1.2-.6 2.3-.8 3.3-.8 2.9-1.5 5.2-2.2 7.2l-.6 1.7c-2.3 5.7-4.6 7.4-9.4 10.1a57 57 0 0 1-6.8 3.9h-.1c-6.5 4-9.5 7.4-11 10.7s-1.9 6.7-3.1 10.3-3.7 5.8-6.8 9-4.2 4-6.1 5.7h-.4l-2.2-1.2a105.9 105.9 0 0 1-10.7-6.6 123.3 123.3 0 0 1-27.9-27l.3-.8c6-15.7 18.6-28 26.3-42.9a103.4 103.4 0 0 0 8.7-26 105.4 105.4 0 0 0 1.5-30.2c-.2-2.4-.4-4.8-.5-7.3l20.9 11.9a44 44 0 0 0 1 6 36.9 36.9 0 0 0 2.1 6.4 24.8 24.8 0 0 0 2.8 5.1h.1c3.7 5.4 9 9.2 13.8 13.3l2 1.9a73.5 73.5 0 0 0 6.7 5.6l.7.5h.1c.2.2 2.1 2.8 3.1 8.5s.8 11.7-1.5 20.9z"/><path fill="#b8e2de" d="M208.1 142.4l-1.2-.2 1.4.3zM128 4.9a120.2 120.2 0 0 0-96.4 191.8l.3-.8c6-15.7 18.6-28 26.3-42.9a103.4 103.4 0 0 0 8.7-26 105.4 105.4 0 0 0 1.5-30.2c-.2-2.4-.4-4.8-.5-7.3l20.9 11.9h.1c-.1-1.6-.1-3.1-.3-4.6v-.4c0-.4-.1-.7-.1-1.1v-.5a7.7 7.7 0 0 1-.2-1.5L67.8 81.8c.1-.8.1-1.5.2-2.2.7-12.4 4.3-24.9 12-34.6 1.9-2.3 4.7-4.6 7.4-4.2 6.7-6.9 14.2-13.4 23.4-16.2 12.7-3.7 26.7.7 37.1 8.9s17.5 19.7 23.5 31.5 10.9 24.1 17.9 35.3 17.2 22.7 25.1 34.6c2.7 4 5.7 8.4 8.2 12.9a72 72 0 0 1 20 13 117.6 117.6 0 0 0 5.5-35.8A120.1 120.1 0 0 0 128 4.9zm16.3 178.2a83.5 83.5 0 0 1-2.4-9.3h.7a59 59 0 0 0 11.9-4.4c0-.3-.1-.6-.1-.8s-.3-2.6-.4-3.8a201 201 0 0 1-.5-34.7c-8.5 13.2-20.3 13.9-20.3 13.9-4.2 1.1-8.6.1-12.4-1.9l-2.4-1.4-.3-.2c.2.2 2.1 2.8 3.1 8.5s.8 11.5-1.5 20.7c-.3 1.2-.6 2.3-.8 3.3-.8 2.9-1.5 5.2-2.2 7.2l-.6 1.7c1.5 4.4 3.4 7.6 5.8 9.6a10 10 0 0 0 5.8 2.1 3.9 3.9 0 0 0-1 .8 7.1 7.1 0 0 0-2.4 3.7 5.9 5.9 0 0 0 1 4.7 9.5 9.5 0 0 0-1.5 2c-.8 1.7-1.3 4 0 5.6s3.6.8 4.7-.5 2.2-4.2 2.5-6.4l.3-3a4.9 4.9 0 0 1 3.4.1 2.6 2.6 0 0 1 1.4 1.1 1.6 1.6 0 0 1-.6 1.8c-.3.3-.7.5-1 .3a1.4 1.4 0 0 1-.5-.8v-.3c.7-.1.7-1.1 0-1.1s-1.2 1.5-.8 2.3a1.8 1.8 0 0 0 3 .4 3.4 3.4 0 0 0 1.1-2.3 2.8 2.8 0 0 0-1.2-1.9 5.8 5.8 0 0 0-4.8-.7c.1-1.1 0-2.1 0-3.1a19.7 19.7 0 0 0-.3-2.4.9.9 0 0 0-.3-.6c4.4-1 9.1-3.9 14-8.9a72.7 72.7 0 0 0 7.4-8.5l2.8-3.9a7.7 7.7 0 0 1-.2-1.5 105.6 105.6 0 0 1-10.4 12.6zM146.8 77a14.9 14.9 0 0 0-9.2-3.2 14.1 14.1 0 0 0-3.5.5 26.9 26.9 0 0 0-12.2 6.5c-.3.5.1 1.1.5 1.5l.5.6 1.2 1.8c.5.5 1.8 2.1 3 1a9.4 9.4 0 0 0 2.9-4.6 9.9 9.9 0 0 1 2.3-3.8l2.5-1.1a14.1 14.1 0 0 1 9.3 0 13.4 13.4 0 0 1 3.1 1.7c.2-.3.1-.5-.4-.9zm-1.7 3.6c-.1-1.6-3.2-1.8-5.8-1.5a8.9 8.9 0 0 0-5 2.6 8.5 8.5 0 0 0-1.9 2.4 9.1 9.1 0 0 0-2.5 3h.1c-.2.1-.3.2-.3.4l-.7 1c-.2.6-.6 1.2-.3 1.5l.7-.9c.2-.3.5-.6.8-.6h.5a2.8 2.8 0 0 0 1.2-.8h4.4a10.3 10.3 0 0 0 4.1-1.9h.3l1.1-1.2c.2-.1.3-.1.4-.3s3.1-1.3 2.9-3.7zm-2.1 38.2a2.7 2.7 0 0 0-.3-3.9 1 1 0 0 0-1-.2 1 1 0 0 0-.8.7v.3c.2.2 1 .4 1.4 1a2.8 2.8 0 0 1 .1 1.8c-.2.6.6.3.6.3zm-1.1-28.5c1.5-1.6-1.4-2.7-2.3-1s-8.6 1.9-8.6 1.9a6.3 6.3 0 0 0 4.5 1.8 9.3 9.3 0 0 0 6.4-2.7zm-21.8 38.8a14.7 14.7 0 0 0 4.7.4 12.3 12.3 0 0 0 4.2-1 21.3 21.3 0 0 0 4.9-3.6l2.2-2c1.4-1.3 2.9-2.6 3.4-4.4h-.3l-.8.2a19.2 19.2 0 0 1-5.2 1.2 13.7 13.7 0 0 1-3.5-.2 6.2 6.2 0 0 0-3.3 0c-.7.2-1.3.8-2.1 1s-1.9-.6-2.9-.5a3.3 3.3 0 0 0-1.6.5l-2 .9a11.9 11.9 0 0 1-3.6.9c-.4 0-.4.5-.1.7l1.3.2a5 5 0 0 0 .1 2.1 3.7 3.7 0 0 0 .7 1.2 8.3 8.3 0 0 0 3.9 2.4zm9.8-17.9a2 2 0 0 0 1.5-.3 5 5 0 0 0 1.1-1 7.8 7.8 0 0 0 .5-1.4 3.8 3.8 0 0 0-.2-2.3 6.2 6.2 0 0 0-1.1-1.7 4.6 4.6 0 0 0-2.5-1 4.7 4.7 0 0 1 2.3 2.5 4.9 4.9 0 0 1 .2 3.4 3.5 3.5 0 0 1-1.8 1.8zm-4.4-.8a5.7 5.7 0 0 0-2.2 1.5 3.4 3.4 0 0 0-.6.6 4.8 4.8 0 0 0 1.8-.8c1.1-.4 2.3.1 3.4-.3a2.6 2.6 0 0 0-2.4-1zm-7.5 29.9l-.9-1 .2.5zm-1.7-26.8a3 3 0 0 0 1.8-.4 2.8 2.8 0 0 0-2-.8h-.7c-1 .9-1.4 1.1-2.5.9a2 2 0 0 1-1.6-2.2q.2-1.5.9-1.8a3 3 0 0 1 2.5.3h.3c.1-.2 0-.3-.1-.4a3.5 3.5 0 0 0-2.9-.3 2.5 2.5 0 0 0-1.3 2.2 2.5 2.5 0 0 0 2.1 2.8h.8a2.8 2.8 0 0 0 1.9-.9 1.6 1.6 0 0 0 .8.6zm-4.2-25.6a4.9 4.9 0 0 0-3.1-2.7 1 1 0 0 0 .5-.4 1.3 1.3 0 0 0-.3-1.8c-.2-.2-.5-.2-.8-.3h-.1c-4.1-.5-8.3-1-12.3-.1a11.3 11.3 0 0 0-3.9 2.1 8.8 8.8 0 0 0-2.4 4.7c-.1.2.2.3.3.1a19.5 19.5 0 0 1 1.7-2.3 7.7 7.7 0 0 1 1.8-1.8 6.2 6.2 0 0 1 2.3-.7 24.2 24.2 0 0 1 8.9.3c1.2 1 2.3 3.5 3.4 5a2.6 2.6 0 0 0 1.4 1.2c1.9.5 3.4-.5 2.6-3.3zm-4.1 4.5a4.5 4.5 0 0 0-1.9-1.4h-.4l.2-.2a3.7 3.7 0 0 0 .5-1.1 1.5 1.5 0 0 1-1.4.6l.6-1.4a3.4 3.4 0 0 1-1.8 1.3l.6-1.7-1.3 1.4c-.1.2-.1.2-.3.2a1 1 0 0 1-1-.5 2.4 2.4 0 0 1 0-1.2 10.7 10.7 0 0 1-.7 1.5 3.8 3.8 0 0 1-.6-1.6 9.9 9.9 0 0 1-.2 1.7c-.5-.3-.6-.8-.8-1.4a5.6 5.6 0 0 1 0 1.3 14.8 14.8 0 0 0-5.2.1c-2.2.9-2.4 1.5-2.4 2.8s1.7.9 3 .9h1.4c.7 1 2.7 1.2 3.3 1.2h.1a10.5 10.5 0 0 0 2.5 0l5.1-.9h.2l.5.2a3.7 3.7 0 0 1 1.8.8c.6.3-.3-1.7-1.8-2.6zm-1.1 2.6h-.6a11.7 11.7 0 0 0-2.5 1.5 7.2 7.2 0 0 1-4.9 2.5c-2.2 0 1.5.8 3 .8a12.1 12.1 0 0 0 6.2-2.5 1.4 1.4 0 0 0 0-1.8 2.3 2.3 0 0 0-1.2-.5zm48.8-8.5l.6 3.2a16.5 16.5 0 0 0-.6-3.2zm53.6 93.4c3.3 11.3.4 19.1-1.8 30.6-.3 1.8-.7 3.6-1.1 5.5q4.5-4 8.7-8.4a49.5 49.5 0 0 0-5.8-27.7z"/><path fill="#1e1d1d" d="M228.6 170.9a.7.7 0 0 1-1.4.1c-1.5-8.3-6.6-15.6-12.3-22l-1-1.2h-.1l-3.5-3.2-2-2.1h-.2l-1.2-.2a33.4 33.4 0 0 0-4.3-.5 36.5 36.5 0 0 0 1.8 3.4c1.8 3.3 3.7 6.6 5.6 9.9l4.4 7.8c5.4 9.7 10.2 20.2 11.9 31.1a121.8 121.8 0 0 1-11.2 13.7 49.5 49.5 0 0 0-5.8-27.7c3.3 11.3.4 19.1-1.8 30.6-.3 1.8-.7 3.6-1.1 5.5q-3.3 2.9-6.9 5.4a31.5 31.5 0 0 1-2.9 2.2l-2.2 1.4-.8.5a55 55 0 0 1-5.7 3.6 106.4 106.4 0 0 1-9.5 4.9l-1.3-2.7-3.2-6.1c-3.1-5.7-6.4-11.6-10.1-18.8-.8-1.4-1.5-2.9-2.3-4.5-4.5-8-5.1-20.7-6.6-30a7.7 7.7 0 0 1-.2-1.5c-.1-.4-.1-.7-.2-1 0-.3-.1-.6-.1-.8s-.3-2.6-.4-3.8a201 201 0 0 1-.5-34.7v-1c.1-1.5.3-2.9.4-4.4s.1-1.4.2-2 .1-.8.1-1.3c1-8.5 2.3-16.9 2.4-25.5v-3c-.1-1-.1-2-.3-3a16.5 16.5 0 0 0-.6-3.2 25.3 25.3 0 0 0-2.9-7.2 29 29 0 0 0-1.9-2.9h-.1a23.2 23.2 0 0 0-4-4.3h-.1a57.8 57.8 0 0 0-42.6-13.3h-.6c-2.9.3-9 1.1-13.3.8a17.9 17.9 0 0 0-4.4 8.1c-1.1 4.7-.6 9.7.3 14.4s1.6 7.5 2.2 11.3L67.8 81.8c.1-.8.1-1.5.2-2.2.7-12.4 4.3-24.9 12-34.6 1.9-2.3 4.7-4.6 7.4-4.2 6.7-6.9 14.2-13.4 23.4-16.2 12.7-3.7 26.7.7 37.1 8.9s17.5 19.7 23.5 31.5 10.9 24.1 17.9 35.3 17.2 22.7 25.1 34.6c2.7 4 5.7 8.4 8.2 12.9 4.2 7.5 7.3 15.4 6 23.1z"/><path fill="#d1ac93" d="M117.3 139.8l-.2-.5.9 1-.7-.5zm37.6 32.1l-2.8 3.9a72.7 72.7 0 0 1-7.4 8.5c-4.9 5-9.6 7.9-14 8.9a.9.9 0 0 1 .3.6 19.7 19.7 0 0 1 .3 2.4c0 1 .1 2 0 3.1a5.8 5.8 0 0 1 4.8.7 2.8 2.8 0 0 1 1.2 1.9 3.4 3.4 0 0 1-1.1 2.3 1.8 1.8 0 0 1-3-.4c-.4-.8-.5-2.2.8-2.3s.7 1 0 1.1v.3a1.4 1.4 0 0 0 .5.8c.3.2.7 0 1-.3a1.6 1.6 0 0 0 .6-1.8 2.6 2.6 0 0 0-1.4-1.1 4.9 4.9 0 0 0-3.4-.1l-.3 3c-.3 2.2-.9 4.7-2.5 6.4s-3.4 2-4.7.5-.8-3.9 0-5.6a9.5 9.5 0 0 1 1.5-2 5.9 5.9 0 0 1-1-4.7 7.1 7.1 0 0 1 2.4-3.7 3.9 3.9 0 0 1 1-.8 10 10 0 0 1-5.8-2.1c-2.4-2-4.3-5.2-5.8-9.6l.6-1.7c.7-2 1.4-4.3 2.2-7.2.2-1 .5-2.1.8-3.3 2.3-9.2 2.3-16 1.5-20.7s-2.9-8.3-3.1-8.5l.3.2 2.4 1.4c3.8 2 8.2 3 12.4 1.9 0 0 11.8-.7 20.3-13.9a201 201 0 0 0 .5 34.7c.1 1.2.2 2.5.4 3.8s.1.5.1.8a59 59 0 0 1-11.9 4.4h-.7a83.5 83.5 0 0 0 2.4 9.3 105.6 105.6 0 0 0 10.4-12.7 7.7 7.7 0 0 0 .2 1.6z"/><path fill="#ba9983" d="M154.4 168.5c-2.1-2-5.1-5.2-9.3-10s-13.1-6.8-23.9-9.6c-1-5.7-2.9-8.3-3.1-8.5l.3.2 2.4 1.4c3.8 2 8.2 3 12.4 1.9 0 0 11.8-.7 20.3-13.9a201 201 0 0 0 .5 34.7c.1 1.2.2 2.5.4 3.8z"/><path fill="#fff" d="M72.8 231.5zm82.1-59.6l-2.8 3.9a72.7 72.7 0 0 1-7.4 8.5c-4.9 5-9.6 7.9-14 8.9a.9.9 0 0 1 .3.6 19.7 19.7 0 0 1 .3 2.4c0 1 .1 2 0 3.1a5.8 5.8 0 0 1 4.8.7 2.8 2.8 0 0 1 1.2 1.9 3.4 3.4 0 0 1-1.1 2.3 1.8 1.8 0 0 1-3-.4c-.4-.8-.5-2.2.8-2.3s.7 1 0 1.1v.3a1.4 1.4 0 0 0 .5.8c.3.2.7 0 1-.3a1.6 1.6 0 0 0 .6-1.8 2.6 2.6 0 0 0-1.4-1.1 4.9 4.9 0 0 0-3.4-.1l-.3 3c-.3 2.2-.9 4.7-2.5 6.4s-3.4 2-4.7.5-.8-3.9 0-5.6a9.5 9.5 0 0 1 1.5-2 5.9 5.9 0 0 1-1-4.7 7.1 7.1 0 0 1 2.4-3.7 3.9 3.9 0 0 1 1-.8 10 10 0 0 1-5.8-2.1c-2.4-2-4.3-5.2-5.8-9.6l.6-1.7c.7-2 1.4-4.3 2.2-7.2a40.3 40.3 0 0 0 5.8 1.3 49.7 49.7 0 0 0 17.2-.4 83.5 83.5 0 0 0 2.4 9.3 105.6 105.6 0 0 0 10.4-12.7 7.7 7.7 0 0 0 .2 1.5z"/><path fill="#1e1d1d" d="M72.8 231.5zM88.6 96.9c.2 1.5.2 3 .3 4.6h-.1l-20.9-12c-.1-1.9-.1-3.9-.1-5.8v-1.9l20.5 11.6a7.7 7.7 0 0 0 .2 1.5v.5c0 .4.1.7.1 1.1zm11-2.3c-.6 0-2.6-.2-3.3-1.2h-1.4c-1.3 0-3-.1-3-.9s.2-1.9 2.4-2.8a14.8 14.8 0 0 1 5.2-.1 5.6 5.6 0 0 0 0-1.3c.2.6.3 1.1.8 1.4a9.9 9.9 0 0 0 .2-1.7 3.8 3.8 0 0 0 .6 1.6 10.7 10.7 0 0 0 .7-1.5 2.4 2.4 0 0 0 0 1.2 1 1 0 0 0 1 .5c.2 0 .2 0 .3-.2l1.3-1.4-.6 1.7a3.4 3.4 0 0 0 1.8-1.3L105 90a1.5 1.5 0 0 0 1.4-.6 3.7 3.7 0 0 1-.5 1.1l-.2.2h.4a4.5 4.5 0 0 1 1.9 1.4v1.4l-.5-.2h-.2l-5.1.9a10.5 10.5 0 0 1-2.5 0zm8.5 1v1.8a12.1 12.1 0 0 1-6.2 2.5c-1.5 0-5.2-.8-3-.8a7.2 7.2 0 0 0 4.9-2.5 11.7 11.7 0 0 1 2.5-1.5h.6a2.3 2.3 0 0 1 1.2.5z"/><path fill="#1e1d1d" d="M108.3 82.7a14.8 14.8 0 0 0-.1 2.1v.7c-.1 1.4-.1 2.9-.1 4.4-1.1-1.5-2.2-4-3.4-5a24.2 24.2 0 0 0-8.9-.3 6.2 6.2 0 0 0-2.3.7 7.7 7.7 0 0 0-1.8 1.8 19.5 19.5 0 0 0-1.7 2.4c-.1.2-.4.1-.3-.1a8.8 8.8 0 0 1 2.4-4.7 11.3 11.3 0 0 1 3.9-2.1c4-.9 8.2-.4 12.3.1z"/><path fill="#fff" d="M215.1 207.6q-4.2 4.3-8.7 8.4c.4-1.9.8-3.7 1.1-5.5 2.2-11.5 5.1-19.3 1.8-30.6a49.5 49.5 0 0 1 5.8 27.7z"/><path fill="#191414" d="M117.3 139.8l-.2-.5.9 1z"/><path fill="#f49321" d="M88.9 101.5h-.1l-20.9-12-6.9-3.9 1.1-1.9 1.1-2 .3-.5.8-1.4 3.5 2 20.5 11.6a7.7 7.7 0 0 0 .2 1.5v.5c0 .4.1.7.1 1.1v.4c.2 1.5.2 3 .3 4.6z"/><path fill="#ce7720" d="M88.5 95.4h-.2L67.8 83.7l-3.6-2-.7-.5.8-1.4 3.5 2 20.5 11.6a7.7 7.7 0 0 0 .2 1.5z"/><path fill="#f9f5e1" d="M64.3 79.8l1.1 1.8-2.2.1 1 1.9-2.1.1 1 1.8-2.1.1-9.3-9 12.6 3.2z"/><path fill="#1e1d1d" d="M56.3 81.1l1.7-2.9-6.3-1.6 4.6 4.5z"/><path fill="#ffdbc0" d="M88.6 96.9c.2 1.5.2 3 .3 4.6h-.1c-.2-2.3-.4-4.5-.5-6.1v-2a7.7 7.7 0 0 0 .2 1.5v.5c0 .4.1.7.1 1.1zm19.5-1.3a1.4 1.4 0 0 1 0 1.8 12.1 12.1 0 0 1-6.2 2.5c-1.5 0-5.2-.8-3-.8a7.2 7.2 0 0 0 4.9-2.5 11.7 11.7 0 0 1 2.5-1.5h.6a2.3 2.3 0 0 1 1.2.5zm1.7-.9a3.7 3.7 0 0 0-1.8-.8l-.5-.2h-.2l-5.1.9a10.5 10.5 0 0 1-2.5 0h-.1c-.6 0-2.6-.2-3.3-1.2h-1.4c-1.3 0-3-.1-3-.9s.2-1.9 2.4-2.8a14.8 14.8 0 0 1 5.2-.1 5.6 5.6 0 0 0 0-1.3c.2.6.3 1.1.8 1.4a9.9 9.9 0 0 0 .2-1.7 3.8 3.8 0 0 0 .6 1.6 10.7 10.7 0 0 0 .7-1.5 2.4 2.4 0 0 0 0 1.2 1 1 0 0 0 1 .5c.2 0 .2 0 .3-.2l1.3-1.4-.6 1.7a3.4 3.4 0 0 0 1.8-1.3L105 90a1.5 1.5 0 0 0 1.4-.6 3.7 3.7 0 0 1-.5 1.1l-.2.2h.4a4.5 4.5 0 0 1 1.9 1.4c1.5 1.2 2.4 3.2 1.8 2.6z"/><path fill="#ffdbc0" d="M109.5 91.2a2.6 2.6 0 0 1-1.4-1.2c-1.1-1.5-2.2-4-3.4-5a24.2 24.2 0 0 0-8.9-.3 6.2 6.2 0 0 0-2.3.7 7.7 7.7 0 0 0-1.8 1.8 19.5 19.5 0 0 0-1.7 2.3c-.1.2-.4.1-.3-.1a8.8 8.8 0 0 1 2.4-4.7 11.3 11.3 0 0 1 3.9-2.1c4-.9 8.2-.4 12.3.1h.1c.3.1.6.1.8.3a1.3 1.3 0 0 1 .3 1.8 1 1 0 0 1-.5.4 4.9 4.9 0 0 1 3.1 2.7c.8 2.8-.7 3.8-2.6 3.3zm6 21.7a2.8 2.8 0 0 1-1.9.9h-.8a2.5 2.5 0 0 1-2.1-2.8 2.5 2.5 0 0 1 1.3-2.2 3.5 3.5 0 0 1 2.9.3c.1.1.2.2.1.4h-.3a3 3 0 0 0-2.5-.3q-.7.3-.9 1.8a2 2 0 0 0 1.6 2.2c1.1.2 1.5 0 2.5-.9h.7a2.8 2.8 0 0 1 2 .8 3 3 0 0 1-1.8.4 1.6 1.6 0 0 1-.8-.6zm1.6 26.4l.9 1-.7-.5zm7.4-27.6a4.8 4.8 0 0 1-1.8.8 3.4 3.4 0 0 1 .6-.6 5.7 5.7 0 0 1 2.2-1.5 2.6 2.6 0 0 1 2.4 1c-1.1.4-2.3-.1-3.4.3zm4.7-8.2a4.6 4.6 0 0 1 2.5 1 6.2 6.2 0 0 1 1.1 1.7 3.8 3.8 0 0 1 .2 2.3 7.8 7.8 0 0 1-.5 1.4 5 5 0 0 1-1.1 1 2 2 0 0 1-1.5.3 3.5 3.5 0 0 0 1.8-1.8 4.9 4.9 0 0 0-.2-3.4 4.7 4.7 0 0 0-2.3-2.5zm10.3 14.9c-.5 1.8-2 3.1-3.4 4.4l-2.2 2a21.3 21.3 0 0 1-4.9 3.6 12.3 12.3 0 0 1-4.2 1 14.7 14.7 0 0 1-4.7-.4 8.3 8.3 0 0 1-3.9-2.4 3.7 3.7 0 0 1-.7-1.2 5 5 0 0 1-.1-2.1l-1.3-.2c-.3-.2-.3-.7.1-.7a11.9 11.9 0 0 0 3.6-.9l2-.9a3.3 3.3 0 0 1 1.6-.5c1-.1 2 .6 2.9.5s1.4-.8 2.1-1a6.2 6.2 0 0 1 3.3 0 13.7 13.7 0 0 0 3.5.2 19.2 19.2 0 0 0 5.2-1.2l.8-.2h.3zm-4-25.4a6.3 6.3 0 0 1-4.5-1.8s7.6-.2 8.6-1.9 3.8-.6 2.3 1a9.3 9.3 0 0 1-6.4 2.7zm7.2 21.9a2.7 2.7 0 0 1 .3 3.9s-.8.3-.6-.3a2.8 2.8 0 0 0-.1-1.8c-.4-.6-1.2-.8-1.4-1v-.3a1 1 0 0 1 .8-.7 1 1 0 0 1 1 .2zm2.4-34.3c.2 2.4-2.2 3.3-2.9 3.4s-.2.2-.4.3l-1.1 1.2h-.3a10.3 10.3 0 0 1-4.1 1.9h-4.4a2.8 2.8 0 0 1-1.2.8h-.5c-.3 0-.6.3-.8.6l-.7.9c-.3-.3.1-.9.3-1.5l.7-1c0-.2.1-.3.3-.4h-.1a9.1 9.1 0 0 1 2.5-3 8.5 8.5 0 0 1 1.9-2.4 8.9 8.9 0 0 1 5-2.6c2.6 0 5.7.2 5.8 1.8z"/><path fill="#ffdbc0" d="M147.2 77.9a13.4 13.4 0 0 0-3.1-1.7 14.1 14.1 0 0 0-9.3 0l-2.5 1.1a9.9 9.9 0 0 0-2.3 3.8 9.4 9.4 0 0 1-2.9 4.6c-1.2 1.1-2.5-.5-3-1l-1.2-1.8-.5-.6c-.4-.4-.8-1-.5-1.5a26.9 26.9 0 0 1 12.2-6.5 14.1 14.1 0 0 1 3.5-.5 14.9 14.9 0 0 1 9.2 3.2c.5.4.6.6.4.9zm9.1 11.8l-.6-3.2a16.5 16.5 0 0 1 .6 3.2z"/><path fill="#f4f0ed" d="M108 93.2c0 .2 0 .3-.1.4h-.6l-5.1.9a10.5 10.5 0 0 1-2.5 0h-.1a6.6 6.6 0 0 1-2.5-.7c-.3-.1-.5-.2-.6-.5a.1.1 0 0 1-.1-.1.7.7 0 0 1 .1-.5h.1l.7-.8a7 7 0 0 1 2.4-1.3 8.6 8.6 0 0 1 1.7-.3 13.4 13.4 0 0 1 2 0 8.5 8.5 0 0 1 2.3.3h.4A4.5 4.5 0 0 1 108 92v.2a.9.9 0 0 1 0 1zm33.8-9.1v.2l-.2.2-1.2 1.1a10.3 10.3 0 0 1-4.1 1.9h-6.1c-.2-.3 0-.6.2-.8h.1l.4-.5.4-.4a14.3 14.3 0 0 1 3.7-2.3 9.7 9.7 0 0 1 6.1-.3l.6.5h.1z"/><path fill="#7f6565" d="M131.9 87.8a2.8 2.8 0 0 1-1.2.8h-.5c-.3 0-.6.3-.8.6l-.7.9c-.3-.3.1-.9.3-1.5l.7-1c0-.2.1-.3.3-.4s0-.1.1-.2l.4-.3v.2a1.3 1.3 0 0 0 .2.9h.2a3.3 3.3 0 0 0 1 0z"/><path fill="#ad8a79" d="M118.1 113.1a3 3 0 0 1-1.8.4 1.6 1.6 0 0 1-.8-.6l.5-.6h.1a2.8 2.8 0 0 1 2 .8zm9.8-1.7c-1.1.4-2.3-.1-3.4.3a4.8 4.8 0 0 1-1.8.8 3.4 3.4 0 0 1 .6-.6 5.7 5.7 0 0 1 2.2-1.5 2.6 2.6 0 0 1 2.4 1z"/><path fill="#dbcec6" d="M99.7 94.6h-.1c-.6 0-2.6-.2-3.3-1.2-.1 0-.2-.1-.2-.3l.3-.3a.1.1 0 0 1 .1-.1 2.4 2.4 0 0 1 .8-.6h.7a2.1 2.1 0 0 0 1.7 2.5z"/><path fill="#e5ad88" d="M102.2 90c-4.3.5-5.4 1.5-5.6 2.3a.4.4 0 0 0-.1.3v.2a.7.7 0 0 1-.1.5h-1.5c-1.3 0-3-.1-3-.9s.2-1.9 2.4-2.8a14.8 14.8 0 0 1 5.2-.1h.8z"/><path fill="#e0bfa9" d="M108.1 97.4a12.1 12.1 0 0 1-6.2 2.5c-1.5 0-5.2-.8-3-.8a7.2 7.2 0 0 0 4.9-2.5 11.7 11.7 0 0 1 2.5-1.5h.6a2.3 2.3 0 0 1 1.2.6 1.4 1.4 0 0 1 0 1.7z"/><path fill="#1e1d1d" d="M106.5 91.7a5.7 5.7 0 0 1-.4 1.4 2.7 2.7 0 0 1-.8.7 3.8 3.8 0 0 1-2.1.4 2.7 2.7 0 0 1-1.9-1.1 3.5 3.5 0 0 1-.6-1.8.6.6 0 0 1 .1-.7 9 9 0 0 0-2.8 1.3c-.7.5-.9 1-1.6 1.4h-1.5a3 3 0 0 1-1.5-.7 5.8 5.8 0 0 0 2.3-.2 3.2 3.2 0 0 1-1.3-1 3.7 3.7 0 0 0 2.1.3l-.9-1.6a1.8 1.8 0 0 0 1.5.6 3.9 3.9 0 0 1-.5-1.4 2.9 2.9 0 0 0 2.3 1h.4a.4.4 0 0 0 .1-.3.6.6 0 0 0 .1-.4 2.8 2.8 0 0 0 0-1.3c.2.6.3 1.1.8 1.4a9.9 9.9 0 0 0 .2-1.7 3.8 3.8 0 0 0 .6 1.6 10.7 10.7 0 0 0 .7-1.5 2.4 2.4 0 0 0 0 1.2 1 1 0 0 0 1 .5c.2 0 .2 0 .3-.2l1.3-1.4a11.5 11.5 0 0 1-.6 1.7 3 3 0 0 0 1.8-1.3L105 90a1.5 1.5 0 0 0 1.4-.6 3.7 3.7 0 0 1-.5 1.1l-.2.2h.2l.4.2a1.9 1.9 0 0 1 .2.8z"/><path fill="#514545" d="M104.7 90.8s-1.7-.4-2.1 0 .3.9 1 .9 1.1-.9 1.1-.9z"/><path fill="#e5ad88" d="M145.1 80.6c.2 2.4-2.2 3.3-2.9 3.4h-.5a4.8 4.8 0 0 0-2.1-.6 10.7 10.7 0 0 0-1.8 0h-.4l-2.4.3-2.8.9.2-.4a8.5 8.5 0 0 1 1.9-2.4 8.9 8.9 0 0 1 5-2.6c2.6-.4 5.7-.2 5.8 1.4z"/><path fill="#e0bfa9" d="M141.9 90.3a9.3 9.3 0 0 1-6.4 2.7 6.3 6.3 0 0 1-4.5-1.8s7.6-.2 8.6-1.9 3.8-.6 2.3 1z"/><path fill="#ad8a79" d="M133 108.5a7.8 7.8 0 0 1-.5 1.4 5 5 0 0 1-1.1 1 2 2 0 0 1-1.5.3 3.5 3.5 0 0 0 1.8-1.8 4.9 4.9 0 0 0-.2-3.4 4.7 4.7 0 0 0-2.3-2.5 4.6 4.6 0 0 1 2.5 1 6.2 6.2 0 0 1 1.1 1.7 3.8 3.8 0 0 1 .2 2.3z"/><path fill="#eac1a4" d="M109.5 91.2a2.6 2.6 0 0 1-1.4-1.2c-1.1-1.5-2.2-4-3.4-5a1.7 1.7 0 0 0-1-.3h3.1l1.4.2.8.3a4.9 4.9 0 0 1 3.1 2.7c.8 2.8-.7 3.8-2.6 3.3z"/><path fill="#1e1d1d" d="M109.5 84.8a1 1 0 0 1-.5.4 2 2 0 0 1-.8.4h-.5a13.8 13.8 0 0 1-2-.3l-1-.3a24.2 24.2 0 0 0-8.9-.3 6.2 6.2 0 0 0-2.3.7 7.7 7.7 0 0 0-1.8 1.8 19.5 19.5 0 0 0-1.7 2.3c-.1.2-.4.1-.3-.1a8.8 8.8 0 0 1 2.4-4.7 11.3 11.3 0 0 1 3.9-2.1c4-.9 8.2-.4 12.3.1h.1c.3.1.6.1.8.3a1.3 1.3 0 0 1 .3 1.8z"/><path fill="#7f6565" d="M109.8 94.7a3.7 3.7 0 0 0-1.8-.8l-.5-.2c.5-.3.5-1.3.5-1.4 1.5 1 2.4 3 1.8 2.4z"/><path fill="#dbcec6" d="M142 84.1l-.2.2-1.1 1.2h-.3c-.2.1.3-.6.1-1.3a1.3 1.3 0 0 0-.8-.8h-.2a3.5 3.5 0 0 1 2.2.5l.3.2z"/><path fill="#1e1d1d" d="M138.5 85.2a2.7 2.7 0 0 1-1.5 2.1 3.2 3.2 0 0 1-2.7.1 1.8 1.8 0 0 1-.7-.5 2.6 2.6 0 0 1-.3-2.3l4.4-1.3a1.5 1.5 0 0 1 .8.8 2 2 0 0 1 0 1.1z"/><path fill="#514545" d="M136.3 84a3.7 3.7 0 0 0-1.5.6c-.4.4.9.9 1.5.3s.6-.3 0-.9z"/><path fill="#1e1d1d" d="M143.4 82.4a4.8 4.8 0 0 1-1.2 1.6c-.1.2-.2.2-.4.3a9 9 0 0 0-2.1-.8 4.7 4.7 0 0 0-1.7-.1h-.1l-3.1.8-1.5.6a8.2 8.2 0 0 0-2 1.2l-.4.4-.4.5h-.1l-.4.3h-.1a9.1 9.1 0 0 1 2.5-3l.4-.3a4.8 4.8 0 0 0 1.1-.9 4.2 4.2 0 0 0 .4-1.2c.2.3.1 1.1.3 1.4h.4c.5-.4.3-1 .5-1.7a5.8 5.8 0 0 0 .5 1.4l.2.2a.2.2 0 0 0 .2-.2l.4-1.6c.3.3 0 1.3.5 1.4h.2a5 5 0 0 0 1.9-1.9l-.3 2.1 1.5-1.6a4.9 4.9 0 0 1-.6 1.7 5.9 5.9 0 0 0 2.9-1.3 2.6 2.6 0 0 1-1.2 1.5 2.7 2.7 0 0 0 1.7-.8z"/><path fill="#e3b596" d="M143 118.8s-.8.3-.6-.3a2.8 2.8 0 0 0-.1-1.8c-.4-.6-1.2-.8-1.4-1v-.3a1 1 0 0 1 .8-.7 1 1 0 0 1 1 .2 2.7 2.7 0 0 1 .3 3.9z"/><path fill="#fff" d="M116.1 112.3h-.1l-.5.6a2.8 2.8 0 0 1-1.9.9h-.8a2.5 2.5 0 0 1-2.1-2.8 2.5 2.5 0 0 1 1.3-2.2 3.5 3.5 0 0 1 2.9.3c.1.1.2.2.1.4h-.3a3 3 0 0 0-2.5-.3q-.7.3-.9 1.8a2 2 0 0 0 1.6 2.2c1.1.2 1.5 0 2.5-.9h.7z"/><path fill="#eac1a4" d="M133.3 76.4l-1 .9a9.9 9.9 0 0 0-2.3 3.8 9.4 9.4 0 0 1-2.9 4.6c-1.2 1.1-2.5-.5-3-1l-1.2-1.8c-.4-.8-.3-1.3.2-1.6a12 12 0 0 0 3.3-3.1z"/><path fill="#1e1d1d" d="M147.2 77.9a13.4 13.4 0 0 0-3.1-1.7 14.1 14.1 0 0 0-9.3 0l-2.5 1.1a27.4 27.4 0 0 0-5.9 3.9l-1.8 1.5a1.9 1.9 0 0 1-1 .5 1.1 1.1 0 0 1-.7-.3l-.5-.6c-.4-.4-.8-1-.5-1.5a26.9 26.9 0 0 1 12.2-6.5 14.1 14.1 0 0 1 3.5-.5 14.9 14.9 0 0 1 9.2 3.2c.5.4.6.6.4.9z"/><path fill="#e5898d" d="M139.5 118.5c-.5 1.8-2 3.1-3.4 4.4l-2.2 2a21.3 21.3 0 0 1-4.9 3.6 12.3 12.3 0 0 1-4.2 1 14.7 14.7 0 0 1-4.7-.4 8.3 8.3 0 0 1-3.9-2.4 3.7 3.7 0 0 1-.7-1.2 5 5 0 0 1-.1-2.1c0-.1.1-.2.1-.3l-.2.3a1.5 1.5 0 0 1 1.5-.8l1.5-.2a85.2 85.2 0 0 0 8.7-.8l3.1-.7 3.1-.7 2.2-.5a8.6 8.6 0 0 0 2.3-.6l.7-.4.8-.2h.3z"/><path fill="#cb787f" d="M139.5 118.4h-.1a3.7 3.7 0 0 1-1.9 1.5c-2 .9-4 1.8-6 2.5l-1.9.6a19.3 19.3 0 0 1-7.1.9h-1.4a5.6 5.6 0 0 1-2.1-.8 1.6 1.6 0 0 1-.7-.7 1.9 1.9 0 0 1-.5-.8l2-.9a3.3 3.3 0 0 1 1.6-.5c1-.1 2 .6 2.9.5s1.4-.8 2.1-1a6.2 6.2 0 0 1 3.3 0 13.7 13.7 0 0 0 3.5.2 19.2 19.2 0 0 0 5.2-1.2l.8-.2h.3z"/><path fill="#ba6a74" d="M121.1 123.9l-2.7-.2a25.3 25.3 0 0 1-3-.3l-1.3-.2c-.3-.2-.3-.7.1-.7a11.9 11.9 0 0 0 3.6-.9 1.9 1.9 0 0 0 .5.8 1.6 1.6 0 0 0 .7.7 5.6 5.6 0 0 0 2.1.8zm18.4-5.5h-.1a3.7 3.7 0 0 1-1.9 1.5c-2 .9-4 1.8-6 2.5a3.6 3.6 0 0 0 1.7-2.3v-.3a19.2 19.2 0 0 0 5.2-1.2l.8-.2h.3z"/><path fill="#efedea" d="M154.9 171.9l-2.8 3.9a72.7 72.7 0 0 1-7.4 8.5l-.4-1.2a105.6 105.6 0 0 0 10.4-12.7 7.7 7.7 0 0 0 .2 1.5z"/><path fill="#b7afa9" d="M154.9 171.9l-2.8 3.9a72.7 72.7 0 0 1-7.4 8.5c-4.9 5-9.6 7.9-14 8.9h-.4a9 9 0 0 1-2.3.2h-.3a10 10 0 0 1-5.8-2.1c-2.4-2-4.3-5.2-5.8-9.6l.6-1.7c1.2 4.1 3.1 8.1 5.9 10.4a8.6 8.6 0 0 0 7.5 1.7c4.8-.9 9.8-4.5 14.2-9.1a105.6 105.6 0 0 0 10.4-12.7 7.7 7.7 0 0 0 .2 1.6z"/><path fill="#b7afa9" d="M136.1 200a5.8 5.8 0 0 0-4.8-.7c.1-1.1 0-2.1 0-3.1a19.7 19.7 0 0 0-.3-2.4.9.9 0 0 0-.3-.6.9.9 0 0 0-1-.4 3.7 3.7 0 0 0-2 .7 3.9 3.9 0 0 0-1 .8 7.1 7.1 0 0 0-2.4 3.7 5.9 5.9 0 0 0 1 4.7 9.5 9.5 0 0 0-1.5 2c-.8 1.7-1.3 4 0 5.6s3.6.8 4.7-.5 2.2-4.2 2.5-6.4l.3-3a4.9 4.9 0 0 1 3.4.1 2.6 2.6 0 0 1 1.4 1.1 1.6 1.6 0 0 1-.6 1.8c-.3.3-.7.5-1 .3a1.4 1.4 0 0 1-.5-.8v-.3c.7-.1.7-1.1 0-1.1s-1.2 1.5-.8 2.3a1.8 1.8 0 0 0 3 .4 3.4 3.4 0 0 0 1.1-2.3 2.8 2.8 0 0 0-1.2-1.9zm-7 6.7c-.5 1.5-1.5 3.1-3.1 3.3a1.8 1.8 0 0 1-1.4-.4 2.1 2.1 0 0 1-.3-.7 3.6 3.6 0 0 1-.2-1 6.8 6.8 0 0 1 1.9-4.4l1.4.9.6.2c.6.1.9-.9.3-1.1h-.4l-.8-.5-.3-.2a8.8 8.8 0 0 1 2.9-1.8l.5-.2a24.4 24.4 0 0 1-1.1 5.9zm1.1-7.1a10.2 10.2 0 0 0-4.2 2.3 5.2 5.2 0 0 1-.6-1.3c-.6-2.5.9-5 3.1-6.3a2.1 2.1 0 0 1 1.1-.4h.3a.4.4 0 0 0 .1.3c0 .2.1.5.1.7a24.4 24.4 0 0 1 .1 4.7z"/><path fill="none" d="M72.8 231.5zm135.3-89.1l-1.2-.2 1.4.3zM128 4.9a120.2 120.2 0 0 0-96.4 191.8l.3-.8c6-15.7 18.6-28 26.3-42.9a103.4 103.4 0 0 0 8.7-26 105.4 105.4 0 0 0 1.5-30.2c-.2-2.4-.4-4.8-.5-7.3l20.9 11.9h.1c-.1-1.6-.1-3.1-.3-4.6v-.4c0-.4-.1-.7-.1-1.1v-.5a7.7 7.7 0 0 1-.2-1.5L67.8 81.8c.1-.8.1-1.5.2-2.2.7-12.4 4.3-24.9 12-34.6 1.9-2.3 4.7-4.6 7.4-4.2 6.7-6.9 14.2-13.4 23.4-16.2 12.7-3.7 26.7.7 37.1 8.9s17.5 19.7 23.5 31.5 10.9 24.1 17.9 35.3 17.2 22.7 25.1 34.6c2.7 4 5.7 8.4 8.2 12.9a72 72 0 0 1 20 13 117.6 117.6 0 0 0 5.5-35.8A120.1 120.1 0 0 0 128 4.9zm16.3 178.2a83.5 83.5 0 0 1-2.4-9.3h.7a59 59 0 0 0 11.9-4.4c0-.3-.1-.6-.1-.8s-.3-2.6-.4-3.8a201 201 0 0 1-.5-34.7c-8.5 13.2-20.3 13.9-20.3 13.9-4.2 1.1-8.6.1-12.4-1.9l-2.4-1.4-.3-.2c.2.2 2.1 2.8 3.1 8.5s.8 11.5-1.5 20.7c-.3 1.2-.6 2.3-.8 3.3-.8 2.9-1.5 5.2-2.2 7.2l-.6 1.7c1.5 4.4 3.4 7.6 5.8 9.6a10 10 0 0 0 5.8 2.1 3.9 3.9 0 0 0-1 .8 7.1 7.1 0 0 0-2.4 3.7 5.9 5.9 0 0 0 1 4.7 9.5 9.5 0 0 0-1.5 2c-.8 1.7-1.3 4 0 5.6s3.6.8 4.7-.5 2.2-4.2 2.5-6.4l.3-3a4.9 4.9 0 0 1 3.4.1 2.6 2.6 0 0 1 1.4 1.1 1.6 1.6 0 0 1-.6 1.8c-.3.3-.7.5-1 .3a1.4 1.4 0 0 1-.5-.8v-.3c.7-.1.7-1.1 0-1.1s-1.2 1.5-.8 2.3a1.8 1.8 0 0 0 3 .4 3.4 3.4 0 0 0 1.1-2.3 2.8 2.8 0 0 0-1.2-1.9 5.8 5.8 0 0 0-4.8-.7c.1-1.1 0-2.1 0-3.1a19.7 19.7 0 0 0-.3-2.4.9.9 0 0 0-.3-.6c4.4-1 9.1-3.9 14-8.9a72.7 72.7 0 0 0 7.4-8.5l2.8-3.9a7.7 7.7 0 0 1-.2-1.5 105.6 105.6 0 0 1-10.4 12.6zM146.8 77a14.9 14.9 0 0 0-9.2-3.2 14.1 14.1 0 0 0-3.5.5 26.9 26.9 0 0 0-12.2 6.5c-.3.5.1 1.1.5 1.5l.5.6 1.2 1.8c.5.5 1.8 2.1 3 1a9.4 9.4 0 0 0 2.9-4.6 9.9 9.9 0 0 1 2.3-3.8l2.5-1.1a14.1 14.1 0 0 1 9.3 0 13.4 13.4 0 0 1 3.1 1.7c.2-.3.1-.5-.4-.9zm-1.7 3.6c-.1-1.6-3.2-1.8-5.8-1.5a8.9 8.9 0 0 0-5 2.6 8.5 8.5 0 0 0-1.9 2.4 9.1 9.1 0 0 0-2.5 3h.1c-.2.1-.3.2-.3.4l-.7 1c-.2.6-.6 1.2-.3 1.5l.7-.9c.2-.3.5-.6.8-.6h.5a2.8 2.8 0 0 0 1.2-.8h4.4a10.3 10.3 0 0 0 4.1-1.9h.3l1.1-1.2c.2-.1.3-.1.4-.3s3.1-1.3 2.9-3.7zm-2.1 38.2a2.7 2.7 0 0 0-.3-3.9 1 1 0 0 0-1-.2 1 1 0 0 0-.8.7v.3c.2.2 1 .4 1.4 1a2.8 2.8 0 0 1 .1 1.8c-.2.6.6.3.6.3zm-1.1-28.5c1.5-1.6-1.4-2.7-2.3-1s-8.6 1.9-8.6 1.9a6.3 6.3 0 0 0 4.5 1.8 9.3 9.3 0 0 0 6.4-2.7zm-21.8 38.8a14.7 14.7 0 0 0 4.7.4 12.3 12.3 0 0 0 4.2-1 21.3 21.3 0 0 0 4.9-3.6l2.2-2c1.4-1.3 2.9-2.6 3.4-4.4h-.3l-.8.2a19.2 19.2 0 0 1-5.2 1.2 13.7 13.7 0 0 1-3.5-.2 6.2 6.2 0 0 0-3.3 0c-.7.2-1.3.8-2.1 1s-1.9-.6-2.9-.5a3.3 3.3 0 0 0-1.6.5l-2 .9a11.9 11.9 0 0 1-3.6.9c-.4 0-.4.5-.1.7l1.3.2a5 5 0 0 0 .1 2.1 3.7 3.7 0 0 0 .7 1.2 8.3 8.3 0 0 0 3.9 2.4zm9.8-17.9a2 2 0 0 0 1.5-.3 5 5 0 0 0 1.1-1 7.8 7.8 0 0 0 .5-1.4 3.8 3.8 0 0 0-.2-2.3 6.2 6.2 0 0 0-1.1-1.7 4.6 4.6 0 0 0-2.5-1 4.7 4.7 0 0 1 2.3 2.5 4.9 4.9 0 0 1 .2 3.4 3.5 3.5 0 0 1-1.8 1.8zm-4.4-.8a5.7 5.7 0 0 0-2.2 1.5 3.4 3.4 0 0 0-.6.6 4.8 4.8 0 0 0 1.8-.8c1.1-.4 2.3.1 3.4-.3a2.6 2.6 0 0 0-2.4-1zm-7.5 29.9l-.9-1 .2.5zm-1.7-26.8a3 3 0 0 0 1.8-.4 2.8 2.8 0 0 0-2-.8h-.7c-1 .9-1.4 1.1-2.5.9a2 2 0 0 1-1.6-2.2q.2-1.5.9-1.8a3 3 0 0 1 2.5.3h.3c.1-.2 0-.3-.1-.4a3.5 3.5 0 0 0-2.9-.3 2.5 2.5 0 0 0-1.3 2.2 2.5 2.5 0 0 0 2.1 2.8h.8a2.8 2.8 0 0 0 1.9-.9 1.6 1.6 0 0 0 .8.6zm-4.2-25.6a4.9 4.9 0 0 0-3.1-2.7 1 1 0 0 0 .5-.4 1.3 1.3 0 0 0-.3-1.8c-.2-.2-.5-.2-.8-.3h-.1c-4.1-.5-8.3-1-12.3-.1a11.3 11.3 0 0 0-3.9 2.1 8.8 8.8 0 0 0-2.4 4.7c-.1.2.2.3.3.1a19.5 19.5 0 0 1 1.7-2.3 7.7 7.7 0 0 1 1.8-1.8 6.2 6.2 0 0 1 2.3-.7 24.2 24.2 0 0 1 8.9.3c1.2 1 2.3 3.5 3.4 5a2.6 2.6 0 0 0 1.4 1.2c1.9.5 3.4-.5 2.6-3.3zm-4.1 4.5a4.5 4.5 0 0 0-1.9-1.4h-.4l.2-.2a3.7 3.7 0 0 0 .5-1.1 1.5 1.5 0 0 1-1.4.6l.6-1.4a3.4 3.4 0 0 1-1.8 1.3l.6-1.7-1.3 1.4c-.1.2-.1.2-.3.2a1 1 0 0 1-1-.5 2.4 2.4 0 0 1 0-1.2 10.7 10.7 0 0 1-.7 1.5 3.8 3.8 0 0 1-.6-1.6 9.9 9.9 0 0 1-.2 1.7c-.5-.3-.6-.8-.8-1.4a5.6 5.6 0 0 1 0 1.3 14.8 14.8 0 0 0-5.2.1c-2.2.9-2.4 1.5-2.4 2.8s1.7.9 3 .9h1.4c.7 1 2.7 1.2 3.3 1.2h.1a10.5 10.5 0 0 0 2.5 0l5.1-.9h.2l.5.2a3.7 3.7 0 0 1 1.8.8c.6.3-.3-1.7-1.8-2.6zm-1.1 2.6h-.6a11.7 11.7 0 0 0-2.5 1.5 7.2 7.2 0 0 1-4.9 2.5c-2.2 0 1.5.8 3 .8a12.1 12.1 0 0 0 6.2-2.5 1.4 1.4 0 0 0 0-1.8 2.3 2.3 0 0 0-1.2-.5zm48.8-8.5l.6 3.2a16.5 16.5 0 0 0-.6-3.2zm53.6 93.4c3.3 11.3.4 19.1-1.8 30.6-.3 1.8-.7 3.6-1.1 5.5q4.5-4 8.7-8.4a49.5 49.5 0 0 0-5.8-27.7z"/><path fill="#ffdbc0" d="M152.8 79.3a29 29 0 0 0-1.9-2.9h-.1a23.2 23.2 0 0 0-4-4.3h-.1a57.8 57.8 0 0 0-42.6-13.3h-.6c-2.9.3-9 1.1-13.3.8a17.9 17.9 0 0 0-4.4 8.1c-1.1 4.7-.6 9.7.3 14.4s1.6 7.5 2.2 11.3a7.7 7.7 0 0 0 .2 1.5v.5c0 .4.1.7.1 1.1v.4c.2 1.5.2 3 .3 4.6h-.1a44 44 0 0 0 1 6 36.9 36.9 0 0 0 2.1 6.4 24.8 24.8 0 0 0 2.8 5.1h.1c3.7 5.4 9 9.2 13.8 13.3l2 1.9a73.5 73.5 0 0 0 6.7 5.6l-.2-.5.9 1h.1l.3.2 2.4 1.4c3.8 2 8.2 3 12.4 1.9a16.9 16.9 0 0 0 3.6-2.3c5.9-4.8 8.9-12.6 9.8-18.3a4.5 4.5 0 0 0 .1-1.1 62.4 62.4 0 0 1 6.3-22.2c3.8-7.5.8-17.7-.2-20.6zm-31.4 40.9c1-.1 2 .6 2.9.5s1.4-.8 2.1-1a6.2 6.2 0 0 1 3.3 0 13.7 13.7 0 0 0 3.5.2 19.2 19.2 0 0 0 5.2-1.2l.8-.2h.3c-.5 1.8-2 3.1-3.4 4.4l-2.2 2a21.3 21.3 0 0 1-4.9 3.6 12.3 12.3 0 0 1-4.2 1 14.7 14.7 0 0 1-4.7-.4 8.3 8.3 0 0 1-3.9-2.4 3.7 3.7 0 0 1-.7-1.2 5 5 0 0 1-.1-2.1l-1.3-.2c-.3-.2-.3-.7.1-.7a11.9 11.9 0 0 0 3.6-.9l2-.9a3.3 3.3 0 0 1 1.6-.5zm1.3-7.7a3.4 3.4 0 0 1 .6-.6 5.7 5.7 0 0 1 2.2-1.5 2.6 2.6 0 0 1 2.4 1c-1.1.4-2.3-.1-3.4.3a4.8 4.8 0 0 1-1.8.8zm7.2-25.3a9.1 9.1 0 0 1 2.5-3 8.5 8.5 0 0 1 1.9-2.4 8.9 8.9 0 0 1 5-2.6c2.6-.3 5.7-.1 5.8 1.5s-2.2 3.3-2.9 3.4-.2.2-.4.3l-1.1 1.2h-.3a10 10 0 0 1-5.1 2.1h-3.4a2.8 2.8 0 0 1-1.2.8h-.5c-.3 0-.6.3-.8.6l-.7.9c-.3-.3.1-.9.3-1.5l.7-1c0-.2.1-.3.3-.4zm12.4 29.5c-.4-.6-1.2-.8-1.4-1v-.3a1 1 0 0 1 .8-.7 1 1 0 0 1 1 .2 2.7 2.7 0 0 1 .3 3.9s-.8.3-.6-.3a2.8 2.8 0 0 0-.1-1.8zM131.5 106a4.7 4.7 0 0 0-2.3-2.5 4.6 4.6 0 0 1 2.5 1 6.2 6.2 0 0 1 1.1 1.7 3.8 3.8 0 0 1 .2 2.3 7.8 7.8 0 0 1-.5 1.4 5 5 0 0 1-1.1 1 2 2 0 0 1-1.5.3 3.5 3.5 0 0 0 1.8-1.8 4.9 4.9 0 0 0-.2-3.4zm-.5-14.8s7.6-.2 8.6-1.9 3.8-.6 2.3 1a9.3 9.3 0 0 1-6.4 2.7 6.3 6.3 0 0 1-4.5-1.8zm-29.1 8.7c-1.5 0-5.2-.8-3-.8a7.2 7.2 0 0 0 4.9-2.5 11.7 11.7 0 0 1 2.5-1.5h.6a2.3 2.3 0 0 1 1.2.6 1.4 1.4 0 0 1 0 1.8 12.1 12.1 0 0 1-6.2 2.4zm13 9.1c.1.1.2.2.1.4h-.3a3 3 0 0 0-2.5-.3q-.7.3-.9 1.8a2 2 0 0 0 1.6 2.2c1.1.2 1.5 0 2.5-.9h.7a2.8 2.8 0 0 1 2 .8 3 3 0 0 1-1.8.4 1.6 1.6 0 0 1-.8-.6 2.8 2.8 0 0 1-1.9.9h-.8a2.5 2.5 0 0 1-2.1-2.8 2.5 2.5 0 0 1 1.3-2.2 3.5 3.5 0 0 1 2.9.3zM91.7 87.2a19.5 19.5 0 0 0-1.7 2.3c-.1.2-.4.1-.3-.1a8.8 8.8 0 0 1 2.4-4.7 11.3 11.3 0 0 1 3.9-2.1c4-.9 8.2-.4 12.3.1h.1c.3.1.6.1.8.3a1.3 1.3 0 0 1 .3 1.8 1 1 0 0 1-.5.4 4.9 4.9 0 0 1 3.1 2.7c.8 2.8-.7 3.8-2.6 3.3a2.6 2.6 0 0 1-1.4-1.2c-1.1-1.5-2.2-4-3.4-5a24.2 24.2 0 0 0-8.9-.3 6.2 6.2 0 0 0-2.3.7 7.7 7.7 0 0 0-1.8 1.8zm.2 5.3c0-1.3.2-1.9 2.4-2.8a14.8 14.8 0 0 1 5.2-.1 5.6 5.6 0 0 0 0-1.3c.2.6.3 1.1.8 1.4a9.9 9.9 0 0 0 .2-1.7 3.8 3.8 0 0 0 .6 1.6 10.7 10.7 0 0 0 .7-1.5 2.4 2.4 0 0 0 0 1.2 1 1 0 0 0 1 .5c.2 0 .2 0 .3-.2l1.3-1.4-.6 1.7a3.4 3.4 0 0 0 1.8-1.3L105 90a1.5 1.5 0 0 0 1.4-.6 3.7 3.7 0 0 1-.5 1.1l-.2.2h.4a4.5 4.5 0 0 1 1.9 1.4c1.5.9 2.4 2.9 1.8 2.3a3.7 3.7 0 0 0-1.8-.8l-.5-.2h-.2l-5.1.9a10.5 10.5 0 0 1-2.5 0h-.1c-.6 0-2.6-.2-3.3-1.2h-1.4c-1.3.3-3 .2-3-.6zm55.3-14.6a13.4 13.4 0 0 0-3.1-1.7 14.1 14.1 0 0 0-9.3 0l-2.5 1.1a9.9 9.9 0 0 0-2.3 3.8 9.4 9.4 0 0 1-2.9 4.6c-1.2 1.1-2.5-.5-3-1l-1.2-1.8-.5-.6c-.4-.4-.8-1-.5-1.5a26.9 26.9 0 0 1 12.2-6.5 14.1 14.1 0 0 1 3.5-.5 14.9 14.9 0 0 1 9.2 3.2c.5.4.6.6.4.9z"/><path fill="#eac1a4" d="M156.6 95.8c-.1 8.6-1.4 17-2.4 25.5 0 .5-.1.9-.1 1.3s-.1 1.3-.2 2-.3 2.9-.4 4.4v1c-8.5 13.2-20.3 13.9-20.3 13.9a16.9 16.9 0 0 0 3.6-2.3c5.9-4.8 8.9-12.6 9.8-18.3a4.5 4.5 0 0 0 .1-1.1 62.4 62.4 0 0 1 6.3-22.3c3.8-7.5.8-17.7-.2-20.6a25.3 25.3 0 0 1 2.9 7.2l.6 3.2c.2 1 .2 2 .3 3z"/><path fill="#fff" d="M242.6 160.8a117.4 117.4 0 0 1-16.3 33.1c-1.7-10.9-6.5-21.4-11.9-31.1L210 155c-1.9-3.3-3.8-6.6-5.6-9.9a36.5 36.5 0 0 1-1.8-3.4 33.4 33.4 0 0 1 4.3.5l1.4.3 2 2.1 3.5 3.2h.1l1 1.2c5.7 6.4 10.8 13.7 12.3 22a.7.7 0 0 0 1.4-.1c1.3-7.7-1.8-15.6-6-23.1a72 72 0 0 1 20 13z"/><path fill="#c9c3bc" d="M154.7 170.4a105.6 105.6 0 0 1-10.4 12.7 83.5 83.5 0 0 1-2.4-9.3h.7a59 59 0 0 0 11.9-4.4c.1.3.1.6.2 1zm22.4 60.9l-4.1-3.1a83.7 83.7 0 0 1-14.8-17.5c-2.8-4.1-5.2-8.2-7.3-12a75.3 75.3 0 0 1-6.2-14.4 72.7 72.7 0 0 0 7.4-8.5l2.8-3.9c1.5 9.3 2.1 22 6.6 30 .8 1.6 1.5 3.1 2.3 4.5 3.7 7.2 7 13.1 10.1 18.8z"/><path fill="#fff" d="M178.4 234l-7.8 3.3a120.3 120.3 0 0 1-97-5.2l-.9-.5h.1c1.9-1.7 4.1-3.7 6.1-5.7s5.9-6.5 6.8-9 1.4-6.9 3.1-10.3 4.5-6.7 11-10.7h.1a57 57 0 0 0 6.8-3.9c4.8-2.7 7.1-4.4 9.4-10.1 1.5 4.4 3.4 7.6 5.8 9.6a10 10 0 0 0 5.8 2.1 3.9 3.9 0 0 0-1 .8 7.1 7.1 0 0 0-2.4 3.7 5.9 5.9 0 0 0 1 4.7 9.5 9.5 0 0 0-1.5 2c-.8 1.7-1.3 4 0 5.6s3.6.8 4.7-.5 2.2-4.2 2.5-6.4l.3-3a4.9 4.9 0 0 1 3.4.1 2.6 2.6 0 0 1 1.4 1.1 1.6 1.6 0 0 1-.6 1.8c-.3.3-.7.5-1 .3a1.4 1.4 0 0 1-.5-.8v-.3c.7-.1.7-1.1 0-1.1s-1.2 1.5-.8 2.3a1.8 1.8 0 0 0 3 .4 3.4 3.4 0 0 0 1.1-2.3 2.8 2.8 0 0 0-1.2-1.9 5.8 5.8 0 0 0-4.8-.7c.1-1.1 0-2.1 0-3.1a19.7 19.7 0 0 0-.3-2.4.9.9 0 0 0-.3-.6c4.4-1 9.1-3.9 14-8.9a75.3 75.3 0 0 0 6.2 14.4c2.1 3.8 4.5 7.9 7.3 12a83.7 83.7 0 0 0 14.8 17.4l4.1 3.1z"/></symbol><symbol id="facebook" viewBox="0 0 250 250"><path d="M250 222.2a26.6 26.6 0 0 1-26.8 26.8h-47.4v-98.8h33.5l5-37.9h-38.5v-24c0-5.9 1.1-10.4 3.3-13.4s8-5 15.1-5h20.1V36.4a212.3 212.3 0 0 0-29-1.7c-14.9 0-26.7 4.4-35.5 13.1s-13.1 21-13.1 36.6v27.9h-34v37.9h34V249H26.8a25.8 25.8 0 0 1-19-7.8 25.8 25.8 0 0 1-7.8-19V25.8a26 26 0 0 1 7.8-19 25.8 25.8 0 0 1 19-7.8h196.4a25.8 25.8 0 0 1 19 7.8 26 26 0 0 1 7.8 19z"/></symbol><symbol id="linkedin" viewBox="0 0 250 250"><path d="M232.1 0a17.2 17.2 0 0 1 12.6 5.3 17.2 17.2 0 0 1 5.3 12.6v214.2a18.1 18.1 0 0 1-17.9 17.9H17.9a17.2 17.2 0 0 1-12.6-5.3A17.2 17.2 0 0 1 0 232.1V17.9A17.2 17.2 0 0 1 5.3 5.3 17.2 17.2 0 0 1 17.9 0zM56.9 78.7a21.3 21.3 0 0 0 15.4-6.4 21 21 0 0 0 0-30.2 21.3 21.3 0 0 0-15.4-6.4 20.1 20.1 0 0 0-15 6.4 21.5 21.5 0 0 0 0 30.2 20.1 20.1 0 0 0 15 6.4zm18.4 135.6h.6V94.9H38.5v119.4zm139 0V149c0-18.6-2.6-32.2-7.8-40.7q-10.6-16.2-36.3-16.2a42.9 42.9 0 0 0-22.9 6.1A31.4 31.4 0 0 0 135 111h-.5V94.9H98.8v119.4h36.8v-59.2c0-9.3 1.3-16.3 3.9-21.2s9.9-9.5 18.4-9.5 14.2 3.6 16.8 10.6c1.8 4.5 2.8 11.6 2.8 21.2v58.1z"/></symbol><symbol id="insta" viewBox="0 0 250 250"><path d="M249.3 73.1q.6 15.6.6 51.9c0 24.2-.3 41.6-.8 52.2a106.8 106.8 0 0 1-4.8 27.6 65.6 65.6 0 0 1-15.3 24.3 64.4 64.4 0 0 1-24.3 15.3 106.8 106.8 0 0 1-27.6 4.8c-10.6.5-28 .8-52.2.8s-41.6-.3-52.2-.8a94.6 94.6 0 0 1-27.6-5.3 59.8 59.8 0 0 1-24.3-14.8 64.4 64.4 0 0 1-15.3-24.3 106.8 106.8 0 0 1-4.8-27.6c-.5-10.6-.8-28-.8-52.2s.3-41.6.8-52.2a106.8 106.8 0 0 1 4.8-27.6A64.8 64.8 0 0 1 45.1 5.6 106.8 106.8 0 0 1 72.7.8c10.6-.5 28-.8 52.2-.8s41.6.3 52.2.8a106.8 106.8 0 0 1 27.6 4.8A64.4 64.4 0 0 1 229 20.9a65.6 65.6 0 0 1 15.3 24.3 111.5 111.5 0 0 1 5 27.9zm-26.8 125.6c2.3-6.4 3.8-16.4 4.5-30.2.4-8.2.6-19.7.6-34.6v-17.8c0-15.3-.2-26.8-.6-34.6-.7-14.2-2.2-24.2-4.5-30.2a40.2 40.2 0 0 0-23.9-24c-6-2.2-16-3.7-30.2-4.4-8.2-.4-19.7-.6-34.6-.6H116c-14.9 0-26.5.2-34.6.6-13.8.7-23.8 2.2-30.2 4.4a40.6 40.6 0 0 0-24 24c-2.2 6-3.7 16-4.4 30.2-.4 8.2-.6 19.7-.6 34.6v17.8c0 14.9.2 26.4.6 34.6.7 13.8 2.2 23.8 4.4 30.2q7.4 17.3 24 24c6.4 2.2 16.4 3.7 30.2 4.4 8.1.4 19.7.6 34.6.6h17.8c15.3 0 26.8-.2 34.6-.6 14.2-.7 24.2-2.2 30.2-4.4 11.5-4.9 19.5-12.9 23.9-24zM124.9 60.8a62.4 62.4 0 0 1 32.1 8.7 64.8 64.8 0 0 1 23.4 23.4 63.6 63.6 0 0 1 0 64.2 64.8 64.8 0 0 1-23.4 23.4 63.6 63.6 0 0 1-64.2 0 63.3 63.3 0 0 1-23.4-23.4 63.6 63.6 0 0 1 0-64.2 63.3 63.3 0 0 1 23.4-23.4 62.4 62.4 0 0 1 32.1-8.7zm0 106.1a41.8 41.8 0 0 0 41.8-41.9 41.8 41.8 0 0 0-41.8-41.9A42 42 0 0 0 83 125a42 42 0 0 0 41.9 41.9zm82-108.9a14.7 14.7 0 0 0-4.4-10.6 14.9 14.9 0 0 0-10.6-4.4 15.2 15.2 0 0 0-15.1 15 14.3 14.3 0 0 0 4.5 10.6 14.3 14.3 0 0 0 10.6 4.5 13.6 13.6 0 0 0 10.3-4.5 17.2 17.2 0 0 0 4.7-10.6z"/></symbol><symbol id="pencil" viewBox="0 0 250 250"><circle cx="125" cy="125" r="120.9" fill="#b8e2de"/><path fill="#ffb871" d="M138.2 49.4l-44.5 85.2-9.6-5.1-.4-17.7L121 40.4l17.2 9z"/><path fill="#f49321" d="M88.3 79.6h96.1v46.07H88.3z" transform="rotate(-62.4 136.455 102.613)"/><path fill="#ce7720" d="M196.2 79.7L159 151.1l-24.4 4.8L179 70.7l17.2 9z"/><path fill="#f9f5e1" d="M159 151.1l-14.8 9.8-3.1 2.1-29.5 19.7-26.7-13.9-.7-34.7-.1-4.6-.4-17.7 10 22.8 27.7-3.2 13.2 24.5 24.4-4.8z"/><path fill="#1e1d1d" d="M85.6 200l-.7-31.2 26.7 13.9-26 17.3z"/><ellipse cx="158.6" cy="60.1" fill="#f9f5e1" rx="8.9" ry="42.4" transform="rotate(-62.4 158.746 60.03)"/><ellipse cx="158.8" cy="59.8" fill="#1e1d1d" rx="2.8" ry="13.4" transform="rotate(-62.4 158.896 59.783)"/></symbol><symbol id="email" viewBox="0 0 250 250"><path d="M244.7 5.3A17.2 17.2 0 0 0 232.1 0H17.9A17.2 17.2 0 0 0 5.3 5.3 17.2 17.2 0 0 0 0 17.9v214.2a17.2 17.2 0 0 0 5.3 12.6 17.2 17.2 0 0 0 12.6 5.3h214.2a18.1 18.1 0 0 0 17.9-17.9V17.9a17.2 17.2 0 0 0-5.3-12.6zM53 52.5h144a22.7 22.7 0 0 1 11.8 3.2L130.2 129l-5.5 5.1-81.9-76.9-1.6-1.5A22.7 22.7 0 0 1 53 52.5zm167.3 121.7a23.3 23.3 0 0 1-23.3 23.3H53a23.3 23.3 0 0 1-23.3-23.3V75.8c0-1.1.1-2.2.2-3.3L105 143l12.6 11.8a10.3 10.3 0 0 0 14.2 0L220 72.5a16.9 16.9 0 0 1 .3 3.3z"/></symbol><symbol id="brush" viewBox="0 0 250 250"><circle cx="125" cy="125" r="120.9" fill="#dfefed"/><path fill="#dbd7c6" d="M72.5 121.2l67.6 35.8 12.6-23.1-68-34.4-12.2 21.7z"/><path fill="#1e1d1d" d="M128.3 77.4a10.3 10.3 0 0 1-3 4.6c-6 5.7-14.2 7.3-19.3 7.6a28.4 28.4 0 0 1-6.5-.3c-9.2-1.6-14.8 10.2-14.8 10.2l32.3 16.4 40.4-69.8c-2.1-1.6-2-6.1.3-10.4s6.5-7.1 9-5.8a.1.1 0 0 0 .1.1l3.2-5.6c-16.8-9-37.3 41.6-41.7 53z"/><path fill="#f9f5e1" d="M140.1 157l-7 12.6c-5-2.7-17.3-7.5-37-2.9-15.5 3.6-31.3-9-39.4-16.9l15.8-28.6z"/><path fill="#7dc8c3" d="M133.1 169.6L114.8 203l-6.9-4 1.3-13-12.1 7.7-23.2-12.5.4-11.3-9.8 6.3-17.5-8.9 9.7-17.5c8.1 7.9 23.9 20.5 39.4 16.9 19.7-4.6 32 .2 37 2.9z"/><path fill="#474646" d="M150.2 85.9a25.6 25.6 0 0 0-4.7 13.5 19.1 19.1 0 0 0 4.9 14.3 16.4 16.4 0 0 1 2.3 20.2l-35.7-18 40.4-69.8.5.3c2.5 1.4 6.6-1.2 9-5.7s2.4-9.3-.1-10.7l3.2-5.6c16 8.7-11.1 49.3-19.8 61.5z"/><path fill="#7dc8c3" d="M115.5 209s-7.9 14.8-5 20.7 8.9 4.9 10.5-1.1-5.5-19.6-5.5-19.6z"/><path fill="#a6e2db" d="M117.5 223.7c-.4 2-1.3 4.8-2.8 6.1a.7.7 0 0 0 .4 1.2 3.5 3.5 0 0 0 3.8-1.7c1.1-1.7.5-4-.1-5.7a.7.7 0 0 0-1.3.1z"/></symbol><symbol id="bulb" viewBox="0 0 250 250"><circle cx="125" cy="125" r="120.9" fill="#e0e8d1"/><path fill="#e8cb52" d="M179 99.7a53.5 53.5 0 0 1-12.1 34.1C149.2 160.9 144 180 144 180h-.4c-1.2-11.2-.6-29.3 10.4-46.2a53.5 53.5 0 0 0 12.1-34.1 54.1 54.1 0 0 0-47.6-53.6 46.3 46.3 0 0 1 6.5-.4 54 54 0 0 1 54 54z"/><path fill="#f7d95c" d="M154 133.8c-11 16.9-11.6 35-10.4 46.2-3.6.3-26.3 1.7-34.2.8-1.7-.1-2.7-.4-2.8-.8-1.4-13-12.9-31.6-20.9-43.2a54 54 0 0 1 30.1-90.3l2.7-.4a54.1 54.1 0 0 1 47.6 53.6 53.5 53.5 0 0 1-12.1 34.1z"/><ellipse cx="125" cy="194.2" fill="#1e1d1d" rx="15.5" ry="10.1"/><rect width="47.5" height="10.43" x="101.3" y="174.5" fill="#b2ae9b" rx="5.2"/><rect width="39.7" height="10.43" x="105.2" y="183.7" fill="#b2ae9b" rx="5.2"/><path fill="#f9ebb4" d="M118.8 159.1l-6-19.2-4.4-14.2c-.9-2.9-2.6-6.4-2.9-9.5s-.1-2.2 2.2-2 5 1.2 7.8-.1c5.4-2.4 8.9-10.6 6.8-16.1-1.4-3.8-6-6-9.4-3s-2.5 5.2-2.1 7.8a12.1 12.1 0 0 0 5.7 8.6 13.7 13.7 0 0 0 6.2 2c2.5.3 7.4.4 9.6-.9s3.7-5.9 4.5-8.5 1.6-7.9-2.1-9.8c-7.8-4.1-11.1 6.3-9.2 11.9a11.8 11.8 0 0 0 7.2 7.6 13.8 13.8 0 0 0 6.4.3c1.5-.2 6.1-2.7 6.7-.2.2.5-.7 2.1-.9 2.7l-1.9 5.3-5.5 15.8-7.5 21.5c-.9 2.6 3.3 3.8 4.2 1.2l12.4-35.7c1.2-3.4 4.6-9.4 3.4-13.1-1.8-5.6-7-2.7-10.8-1.8s-7.4-.2-9.2-3.8c-.9-1.9-1.8-6 .2-7.6 4.1-3.2 2.7 4.3 2 6a17.3 17.3 0 0 1-2 4.1c-.1.2-.3.8-.5.9s-3-.1-3.5-.1c-4 .3-8.5-.7-10.4-4.6-.7-1.3-1.7-5.4.1-6.5s2.7 4.7 2.4 5.8c-1.4 4.7-4.6 7.5-9.4 6.2s-8.7.3-8 5.5a30.4 30.4 0 0 0 1.2 4l12.5 40.7c.8 2.6 5 1.5 4.2-1.2z"/></symbol></svg>