<svg id="Layer_1" data-name="Layer 1" xmlns="http://www.w3.org/2000/svg" width="32" height="32" viewBox="0 0 32 32"><title>WebAssets</title><path d="M15.5,14.8l.5-.2a23.3,23.3,0,0,1-1.2,6.9c-.6,1.7-1.7,3.5-3.6,3.7a1.4,1.4,0,0,1-1.5-.5,1,1,0,0,1-.4-.7,2.3,2.3,0,0,1-.2-1.2,7.6,7.6,0,0,1,2.2-5,6.2,6.2,0,0,0,1.6,1l.6.2a.6.6,0,1,0,.3-1.2h-.1c0-.1-.2-.1-.2-.1h0l-1-.6-.4-.2A12,12,0,0,1,15.5,14.8Z" fill="#68a8ad"/><path d="M15.7,6.8Z" fill="#68a8ad"/><path d="M15.9,7.9a32.5,32.5,0,0,1,.2,5.4A11.5,11.5,0,0,0,11.3,16a5.1,5.1,0,0,1-.7-1.5c-.8-2.9,1-5.8,3.4-7.2a4.2,4.2,0,0,1,1.4-.6h.3c0,.1.1.2.1.3A2.5,2.5,0,0,1,15.9,7.9Z" fill="#68a8ad"/><path d="M16,0A16,16,0,1,0,32,16,16,16,0,0,0,16,0Zm7,18.6-.9.5a2,2,0,0,1-2.6-.9,3.1,3.1,0,0,1-.3-1.3c0-.7.3-1.4,1.2-1.4a.6.6,0,0,1,.1,1.2.3.3,0,0,0,0,.4,1.2,1.2,0,0,0,.5.9c.3.2.7,0,1.1-.3h0c.6-.6,1.1-1.3.7-2.1l-.7-.9-.8-.4a3.9,3.9,0,0,0-2.1-.3l-1.9.2c0,1.2-.2,2.3-.3,3.5s-1,5.4-2.8,7.3-4,2.3-5.5.5-.9-4.4.1-6.3a7.8,7.8,0,0,1,1.6-2.4,6.5,6.5,0,0,1-1.1-5.3A8.2,8.2,0,0,1,12,7.2a5.8,5.8,0,0,1,3.5-1.7c.8-.1,1.3.4,1.5,1.2a12.4,12.4,0,0,1,.3,2.7c.1,1.2.1,2.4.1,3.5l1.8-.2a7.2,7.2,0,0,1,2.9.6l.7.4A3.5,3.5,0,0,1,24.2,16,3.4,3.4,0,0,1,23,18.6Z" fill="#68a8ad"/></svg>