<svg id="Layer_1" data-name="Layer 1" xmlns="http://www.w3.org/2000/svg" width="64" height="64" viewBox="0 0 64 64"><title>WebAssets</title><path d="M31,29.6l1.1-.4a51.9,51.9,0,0,1-2.5,13.7c-1.3,3.4-3.4,7.1-7.1,7.6a3.2,3.2,0,0,1-3.1-1,3.5,3.5,0,0,1-.9-1.6,5.6,5.6,0,0,1-.3-2.2,15.7,15.7,0,0,1,4.3-10.2,11.6,11.6,0,0,0,3.2,2L27,38c1.5.5,2.2-2,.6-2.4h-.7l-2-1.1-.6-.5A24.1,24.1,0,0,1,31,29.6Z" fill="#68a8ad"/><path d="M31.5,13.5h0Z" fill="#68a8ad"/><path d="M31.8,15.8a76,76,0,0,1,.4,10.7,28.1,28.1,0,0,0-9.7,5.4A8.4,8.4,0,0,1,21.2,29c-1.5-5.8,2-11.7,6.9-14.5a8.2,8.2,0,0,1,2.6-1h.7a6.4,6.4,0,0,1,.2.7A11.5,11.5,0,0,1,31.8,15.8Z" fill="#68a8ad"/><path d="M32,0A32,32,0,1,0,64,32,32,32,0,0,0,32,0ZM46,37.1a5.5,5.5,0,0,1-1.9,1.2,3.9,3.9,0,0,1-5-1.9,5.9,5.9,0,0,1-.7-2.6c0-1.5.6-2.7,2.4-2.8s1.6,2.3.1,2.5v.6a2.7,2.7,0,0,0,1,1.8c.7.5,1.5.1,2.2-.5h.1c1.1-1.1,2.1-2.6,1.4-4.2a4.9,4.9,0,0,0-1.5-1.7,5.1,5.1,0,0,0-1.6-.9,11.4,11.4,0,0,0-4.1-.7,16.5,16.5,0,0,0-3.8.5,53.5,53.5,0,0,1-.7,7c-.7,5-2,10.8-5.6,14.7s-8,4.4-10.9,1-1.7-9,.1-12.7a25.6,25.6,0,0,1,3.3-4.8A12.6,12.6,0,0,1,18.7,23,15.9,15.9,0,0,1,24,14.4c1.9-1.6,4.3-3.3,6.9-3.4A2.8,2.8,0,0,1,34,13.4a33.1,33.1,0,0,1,.6,5.4,56.1,56.1,0,0,1,.1,7.1,23.5,23.5,0,0,1,3.7-.5,12.2,12.2,0,0,1,5.7,1.2,6,6,0,0,1,1.5.9,6.3,6.3,0,0,1,2.7,4.4A6.5,6.5,0,0,1,46,37.1Z" fill="#68a8ad"/></svg>