<svg id="Layer_1" data-name="Layer 1" xmlns="http://www.w3.org/2000/svg" width="32" height="32" viewBox="0 0 32 32"><title>WebAssets</title><circle cx="16" cy="16" r="14.1" fill="#d2c93f"/><path d="M23.2,16A3,3,0,0,0,22,14l-.6-.4a5.8,5.8,0,0,0-2.6-.5l-1.6.2V10.2l-.3-2.4a1.3,1.3,0,0,0-1.4-1.1,5.7,5.7,0,0,0-3,1.5A7.1,7.1,0,0,0,10.1,12a5.6,5.6,0,0,0,1,4.7,13.7,13.7,0,0,0-1.5,2.1c-.8,1.7-1.3,4.1,0,5.6s3.6.8,4.8-.4,2.1-4.3,2.5-6.5l.3-3.1,1.6-.2a4.8,4.8,0,0,1,1.8.3l.8.4a2.4,2.4,0,0,1,.6.8c.3.6-.1,1.3-.6,1.8h0a.8.8,0,0,1-1,.2,1.6,1.6,0,0,1-.5-.8v-.2c.7-.1.7-1.2,0-1.1a1.1,1.1,0,0,0-1.1,1.2,2,2,0,0,0,.3,1.1,1.8,1.8,0,0,0,2.3.9l.8-.5A2.9,2.9,0,0,0,23.2,16Zm-8.3,4.8c-.5,1.5-1.4,3.1-3.1,3.4a1.7,1.7,0,0,1-1.4-.5A2.1,2.1,0,0,1,10,23a3.1,3.1,0,0,1-.1-1,7.2,7.2,0,0,1,1.9-4.5,4.2,4.2,0,0,0,1.4.9l.6.3c.7.1,1-.9.3-1.1h-.3l-.9-.5-.3-.2a11.7,11.7,0,0,1,3-1.9H16A20.5,20.5,0,0,1,14.9,20.8Zm1.2-7.2A11.4,11.4,0,0,0,11.8,16a3.8,3.8,0,0,1-.6-1.3,6,6,0,0,1,3.1-6.4l1.1-.5h.3c.1,0,.1.1.1.2a2.3,2.3,0,0,1,.1.7A38.5,38.5,0,0,1,16.1,13.6Z" fill="#fff"/></svg>