<svg id="Layer_1" data-name="Layer 1" xmlns="http://www.w3.org/2000/svg" width="16" height="16" viewBox="0 0 16 16"><title>WebAssets</title><path d="M7.7,7.4H8a12.8,12.8,0,0,1-.6,3.4c-.3.9-.8,1.8-1.8,1.9a.8.8,0,0,1-.8-.2.8.8,0,0,0-.2-.4c0-.2-.1-.4-.1-.6A4.1,4.1,0,0,1,5.6,8.9l.8.5h.3c.4.1.6-.5.2-.6H6.7l-.5-.2V8.4A5.4,5.4,0,0,1,7.7,7.4Z" fill="#68a8ad"/><path d="M7.9,3.4Z" fill="#68a8ad"/><path d="M8,3.9A12.2,12.2,0,0,1,8,6.6,8.4,8.4,0,0,0,5.6,8l-.3-.8A3.4,3.4,0,0,1,7,3.6l.7-.2h.2C7.9,3.7,7.9,3.8,8,3.9Z" fill="#68a8ad"/><path d="M8,0a8,8,0,1,0,8,8A8,8,0,0,0,8,0Zm3.5,9.3-.5.3a1.1,1.1,0,0,1-1.2-.5,1.4,1.4,0,0,1-.2-.7.7.7,0,0,1,.6-.7c.4,0,.4.6,0,.7h0l.3.5a.4.4,0,0,0,.5-.1h0a.8.8,0,0,0,.4-1,.8.8,0,0,0-.4-.4.5.5,0,0,0-.4-.2,1.6,1.6,0,0,0-1-.2H8.7c-.1.6-.1,1.2-.2,1.7a6.7,6.7,0,0,1-1.4,3.7c-.7.7-2,1.1-2.7.3a2.9,2.9,0,0,1,0-3.2,8.3,8.3,0,0,1,.8-1.2,3.4,3.4,0,0,1-.5-2.6A4.5,4.5,0,0,1,6,3.6a4,4,0,0,1,1.7-.9.8.8,0,0,1,.8.7c.1.4.1.9.2,1.3V6.5h.9a3.2,3.2,0,0,1,1.4.2l.4.3A1.4,1.4,0,0,1,12.1,8,2,2,0,0,1,11.5,9.3Z" fill="#68a8ad"/></svg>