<svg id="Layer_1" data-name="Layer 1" xmlns="http://www.w3.org/2000/svg" width="16" height="16" viewBox="0 0 16 16"><title>WebAssets</title><circle cx="8" cy="8" r="7.5" fill="#d2c93f"/><path d="M11.9,8a2.1,2.1,0,0,0-.7-1.1l-.3-.2a2.3,2.3,0,0,0-1.4-.2H8.6a9.6,9.6,0,0,0,0-1.7,5.7,5.7,0,0,0-.1-1.3A.8.8,0,0,0,7.7,3a3.7,3.7,0,0,0-1.6.9,3.2,3.2,0,0,0-1.2,2,2.8,2.8,0,0,0,.5,2.5,2.8,2.8,0,0,0-.8,1.1,2.7,2.7,0,0,0,0,3c.6.8,1.9.4,2.5-.2A6.4,6.4,0,0,0,8.5,8.8c0-.5.1-1.1.1-1.6L9.5,7l1,.2.4.2.3.4c.2.4-.1.7-.3,1h0a.7.7,0,0,1-.6.1.5.5,0,0,1-.2-.4V8.3c.4,0,.3-.6,0-.5a.6.6,0,0,0-.6.6,1.1,1.1,0,0,0,.2.6,1,1,0,0,0,1.2.5l.4-.3A1.7,1.7,0,0,0,11.9,8ZM7.4,10.6a2.6,2.6,0,0,1-1.6,1.8,1.1,1.1,0,0,1-.8-.3l-.2-.3c0-.2-.1-.4-.1-.6A3.8,3.8,0,0,1,5.8,8.8a1.8,1.8,0,0,0,.7.5h.3c.4.1.5-.4.2-.6H6.8l-.5-.3H6.2a6.2,6.2,0,0,1,1.6-1H8A12.8,12.8,0,0,1,7.4,10.6ZM8,6.7A6.1,6.1,0,0,0,5.8,8a2.5,2.5,0,0,1-.4-.7A3.2,3.2,0,0,1,7.1,3.9l.6-.3h.2v.2a.6.6,0,0,0,.1.4A10.5,10.5,0,0,1,8,6.7Z" fill="#fff"/></svg>