<svg id="Layer_1" data-name="Layer 1" xmlns="http://www.w3.org/2000/svg" width="192" height="192" viewBox="0 0 192 192"><title>WebAssets</title><path d="M93,88.9l3.2-1.3c-.9,14-2.8,28.1-7.5,41.2-3.7,10.2-10,21.1-21.2,22.7-3.8.5-6.9-.4-9.4-3a15.1,15.1,0,0,1-2.6-4.7,19.7,19.7,0,0,1-1-6.8c0-11.2,5.6-22.1,13-30.5a36.5,36.5,0,0,0,9.6,6.1,29.2,29.2,0,0,0,3.8,1.4c4.7,1.4,6.7-5.9,2-7.2l-.7-.2-1.3-.5h-.2a43.6,43.6,0,0,1-6-3.3l-1.9-1.5A69.7,69.7,0,0,1,93,88.9Z" fill="#68a8ad"/><path d="M94.4,40.5h0Z" fill="#68a8ad"/><path d="M95.5,47.4a230,230,0,0,1,1.1,32.2,80.4,80.4,0,0,0-29,16.1,25.4,25.4,0,0,1-4.1-8.8C59,69.7,69.5,52,84.3,43.6a23.3,23.3,0,0,1,7.9-3.1h2.1c.1.6.3,1.2.4,1.9A44.3,44.3,0,0,1,95.5,47.4Z" fill="#68a8ad"/><path d="M96,0a96,96,0,1,0,96,96A96,96,0,0,0,96,0Zm41.9,111.4a18.2,18.2,0,0,1-5.5,3.5c-5.7,2.1-11.7.4-15.2-5.8a17,17,0,0,1-2-7.8c0-4.3,1.9-8.1,7.1-8.3s4.9,6.9.4,7.4a13.4,13.4,0,0,0,0,2,8.7,8.7,0,0,0,3.1,5.4c2.1,1.4,4.5.3,6.6-1.6h.1c3.4-3.2,6.5-7.8,4.3-12.5a14.3,14.3,0,0,0-4.4-5.1,25.5,25.5,0,0,0-4.8-2.7,30.6,30.6,0,0,0-12.4-2.1,54,54,0,0,0-11.3,1.6c-.4,7-1.1,13.9-2.1,20.9-2.2,15.1-6,32.5-16.9,44.1-8,8.5-23.9,13.3-32.6,3s-5.3-26.9.2-38a59.5,59.5,0,0,1,9.9-14.4c-6.6-8.7-9-20.3-6.4-31.9,2.3-10,8.3-19.1,16-25.8,5.6-4.9,13-10,20.7-10.3,5.2-.3,8.2,2.6,9.2,7.3a99.4,99.4,0,0,1,1.9,16.2c.5,7.1.6,14.1.4,21.2a58,58,0,0,1,11-1.3,38.6,38.6,0,0,1,17.2,3.4,39.9,39.9,0,0,1,4.4,2.7c4.3,3.3,7.7,7.8,8.2,13.3S142.2,107.4,137.9,111.4Z" fill="#68a8ad"/></svg>