<svg id="Layer_1" data-name="Layer 1" xmlns="http://www.w3.org/2000/svg" width="744.2" height="744.2" viewBox="0 0 744.2 744.2"><title>WebAssets</title><circle cx="372.1" cy="372.1" r="318.7" fill="#d2c93f"/><path d="M535,371.2c-1.7-18.3-13.1-33.3-27.4-44.1a90,90,0,0,0-14.8-9c-17.4-8.5-37.1-11.7-56.9-11.4a194.5,194.5,0,0,0-36.6,4.2c.6-23.4.2-46.9-1.2-70.1-1.1-17.9-2.3-36.3-6.2-53.8-3.6-15.6-13.6-25.3-30.6-24.5-25.6,1.3-50.4,18.1-69,34.4-25.4,22.2-45.5,52.5-52.9,85.6-8.6,38.4-.8,76.9,21,106a205.4,205.4,0,0,0-32.7,47.6c-18.4,37.1-30.2,91.2-.7,126.2s81.7,18.4,108.3-10c36.1-38.4,48.7-96.1,56-146.5,3.4-22.9,5.7-46.1,7-69.3a178.3,178.3,0,0,1,37.6-5.2c14.3-.3,28.3,1.7,41.1,7a66.7,66.7,0,0,1,15.8,8.8c6.3,4.6,11.7,10.3,14.8,17.1,7.1,15.7-2.9,30.8-14.2,41.3l-.6.5c-6.7,6.1-14.9,9.9-21.6,5.2s-9.1-11-10.4-17.9a19.7,19.7,0,0,1,.1-6.4c14.7-2,14.3-25.6-1.3-24.9-17.3.7-23.7,13.6-23.7,27.7a55.5,55.5,0,0,0,6.6,25.8c11.5,20.8,31.7,26.2,50.3,19.2a56.6,56.6,0,0,0,18.4-11.5C525.4,410,536.7,391.3,535,371.2ZM347.9,481c-12.2,33.8-33.1,69.9-70.4,75.4-12.7,1.8-23.1-1.4-31.3-10.1-3.1-3.2-6.7-10.2-8.4-15.4-2.7-8.4-3.3-14-3.3-22.6-.3-37.3,18.3-73.3,43-101.3a121.4,121.4,0,0,0,31.9,20.3A112.1,112.1,0,0,0,322,432c15.5,4.4,22.2-19.8,6.6-24.2a19.5,19.5,0,0,1-2.3-.6l-4.2-1.6c-.5-.2-.7-.3-.7-.4a117.9,117.9,0,0,1-20-11l-6.2-4.7a227.4,227.4,0,0,1,66.9-41.1c3.4-1.4,7-2.8,10.5-4C369.9,390.5,363.5,437.5,347.9,481ZM374,317.6c-35.1,11-68.6,29.2-96.1,53.7a90.6,90.6,0,0,1-13.8-29.5c-14.9-57.1,20.1-115.7,69.1-143.7,8.2-4.7,17-8.8,26.3-10.4a17,17,0,0,1,3-.2h2.2l1.4.4c-.1.1,0,.1.1.1h.1l.5.2h-.6v.3c.4,2.1,1.1,4.1,1.6,6.2,1.3,6.4,2.1,12.3,2.6,16.2C374.6,246.1,375.2,281.9,374,317.6Z" fill="#fff"/></svg>