<svg xmlns="http://www.w3.org/2000/svg" width="64" height="64" viewBox="0 0 64 64"><circle cx="32" cy="32" r="28.3" fill="#d2c93f"/><path fill="#fff" d="M46.5 31.9A6 6 0 0 0 44 28a5.7 5.7 0 0 0-1.3-.8 10.7 10.7 0 0 0-5-1 12.4 12.4 0 0 0-3.3.4c.1-2.1 0-4.2-.1-6.3a39.1 39.1 0 0 0-.5-4.8 2.6 2.6 0 0 0-2.8-2.1c-2.2.1-4.4 1.6-6.1 3a14.9 14.9 0 0 0-4.7 7.6 11.3 11.3 0 0 0 1.9 9.5 13.7 13.7 0 0 0-2.9 4.2c-1.7 3.3-2.7 8.1-.1 11.2s7.3 1.6 9.6-.9 4.4-8.5 5-13a62 62 0 0 0 .6-6.2 19.7 19.7 0 0 1 3.4-.4 7.4 7.4 0 0 1 3.6.6 3.9 3.9 0 0 1 1.4.8 3.1 3.1 0 0 1 1.3 1.5c.7 1.4-.2 2.7-1.2 3.7h-.1c-.6.6-1.3.9-1.9.5a2.4 2.4 0 0 1-.9-1.6c-.1-.2 0-.4 0-.6s1.3-2.3-.1-2.2-2.1 1.2-2.1 2.5a4.6 4.6 0 0 0 .6 2.3 3.5 3.5 0 0 0 4.4 1.7 4.5 4.5 0 0 0 1.7-1.1 6.1 6.1 0 0 0 2.1-4.6zm-16.7 9.8c-1 3-2.9 6.2-6.2 6.7a3.1 3.1 0 0 1-2.8-.9 3.1 3.1 0 0 1-.7-1.4 4.4 4.4 0 0 1-.3-2c-.1-3.3 1.6-6.5 3.8-9a13.4 13.4 0 0 0 2.8 1.8l1.1.4a1.1 1.1 0 1 0 .6-2.1h-.5c-.1 0-.1 0-.1-.1a15.1 15.1 0 0 1-1.8-.9c-.2-.2-.4-.3-.5-.5a22.2 22.2 0 0 1 5.9-3.6l.9-.4a42.3 42.3 0 0 1-2.2 12zm2.4-14.5a22 22 0 0 0-8.6 4.7 7.7 7.7 0 0 1-1.2-2.6c-1.3-5.1 1.8-10.3 6.1-12.8a7.8 7.8 0 0 1 2.4-.9h.6a4.3 4.3 0 0 1 .1.5 10.6 10.6 0 0 0 .3 1.4 77 77 0 0 1 .3 9.7z"/></svg>