<svg xmlns="http://www.w3.org/2000/svg" id="Layer_1" width="2674.9" height="1829.1" viewBox="0 0 2674.9 1829.1"><path fill="#7dc8c3" d="M2315.4 1031.5l-52.4 85.8-106.2 173.7-67.4 110.4-1.2 1.9-747.4-456.7 168.3-51.5-41.7-155.6 161.7-9.6-61-155.1 747.3 456.7z"/><path fill="#dddbd7" d="M2196.8 1017.2h67.7v435.74h-67.7z" transform="rotate(31.4 2232.488 1236.933)"/><path fill="#df9da9" d="M2246.5 1081.2h119.7a58.2 58.2 0 0 1 58.2 58.2v319.4a58.2 58.2 0 0 1-58.2 58.2h-119.7v-435.8z" transform="rotate(31.4 2337.468 1301.089)"/><path fill="#a8e2dd" d="M2315.4 1031.5l-52.4 85.8-633.9-387.4-61-155.1 747.3 456.7z"/><path fill="#62a09a" d="M2156.8 1291l-67.4 110.4-748.6-454.8 168.3-51.5 647.7 395.9z"/><path fill="#7dc8c3" d="M1278.5 852.1l-686.2 686.2-1.6-1.7-91.5-91.4-143.9-144-71.1-71L971 543.3l5.6 136.7 137.9 6.7 10.4 132.8 153.6 32.6z"/><path fill="#a8e2dd" d="M976.6 680l-621.3 621.2-71.1-71L971 543.3l5.6 136.7z"/><path fill="#62a09a" d="M1278.5 852.1l-687.8 684.5-91.5-91.4 625.7-625.7 153.6 32.6z"/><path fill="#f9f5e1" d="M481.7 1339.2l17.5 106 83.7 7.7 7.8 83.7 1.6 1.7-420.6 112.4 112.5-420.5 79.8-8.7-8.7 79.7 126.4 38z"/><path fill="#1e1d1d" d="M232.3 1424.2l165.9 165.9-226.4 60.6 60.5-226.5z"/><path fill="#7dc8c3" d="M1286.9 550.6l-119-362.4h258l-139 362.4zm70.7 24.2l80.7-172.8 94 88.3-174.7 84.5zm-205.2-28.7l-166.2-93.6 95.3-87 70.9 180.6z"/></svg>